<svg width="40" height="40" viewBox="0 0 40 40" fill="none" xmlns="http://www.w3.org/2000/svg">
<g id="goal">
<path id="flag" d="M19 19.9988V0.484006C19 0.261637 19.234 0.117009 19.4329 0.216456L26.4785 3.73929C26.6964 3.84825 26.6997 4.15809 26.4841 4.27156L19.799 7.78974V20L19 19.9988Z" fill="#3F86F1"/>
<path id="people" d="M29.7206 35.4531L27.7298 26.0954H27.2108L26.9248 29.2539C26.8891 29.7287 26.8773 30.2046 26.8902 30.6806L27.0609 35.067C27.0686 35.2747 27.0348 35.4821 26.9617 35.6769C26.8885 35.8718 26.777 36.0507 26.6341 36.203C26.4918 36.3557 26.3197 36.4785 26.1289 36.5651C25.9381 36.6516 25.7319 36.6997 25.5222 36.7067H25.4646C25.0514 36.7073 24.6551 36.5494 24.3573 36.2658C24.0595 35.9822 23.8839 35.5952 23.8683 35.1863L23.6999 30.8C23.681 30.1901 23.6979 29.5796 23.7506 28.9717L24.1704 24.2472C24.1704 24.2344 24.1704 24.2224 24.1704 24.2084L23.7091 19.0961L20.9802 17.0896C20.6849 16.892 20.0213 16.3951 19.4946 15.9822C18.9737 16.3951 18.3065 16.8908 18.0136 17.0896L15.2824 19.0961L14.821 24.2084C14.821 24.2212 14.8208 24.2332 14.8303 24.2472L15.2501 28.9717C15.3008 29.5798 15.317 30.1901 15.2985 30.8L15.1301 35.1863C15.1148 35.5949 14.9408 35.9816 14.6434 36.2652C14.346 36.5488 13.949 36.707 13.5361 36.7067C13.5161 36.7083 13.4962 36.7083 13.4762 36.7067C13.2664 36.7 13.0603 36.6522 12.8695 36.5656C12.6787 36.4791 12.5065 36.3559 12.3643 36.203C12.221 36.0508 12.1103 35.8718 12.0367 35.6769C11.9632 35.4821 11.9302 35.2749 11.9375 35.067L12.1082 30.6806C12.1203 30.2046 12.1078 29.7286 12.0713 29.2539L11.7853 26.0954H11.2686L9.2755 35.4531C9.20048 35.8078 9.00571 36.1262 8.72187 36.3549C8.43804 36.5836 8.08433 36.7084 7.71842 36.709C7.6076 36.7095 7.49673 36.6979 7.38855 36.6742C7.18312 36.6317 6.98745 36.5498 6.81416 36.4326C6.64087 36.3153 6.49282 36.1652 6.37817 35.9911C6.14782 35.639 6.06629 35.2111 6.15211 34.8002L8.27897 24.8018L8.89258 20.6867L8.41276 21.0842C7.15137 22.0598 7.0111 23.4061 5.74381 24.0085C5.42137 24.0085 5.20679 24.1256 4.94104 23.9302C4.80312 23.8155 4.69189 23.6721 4.61579 23.5104C4.53968 23.3488 4.50049 23.1731 4.50045 22.9947C4.49635 22.3721 4.64774 21.7577 4.94104 21.207L5.64923 19.9568L6.12212 19.3382L6.83031 18.5838L9.06097 16.595C9.1972 16.4138 9.37655 16.2683 9.58231 16.1707C9.78806 16.0731 10.0141 16.0263 10.242 16.0347H14.4542L17.2432 14.1631C17.3695 14.0777 17.4796 14.0005 17.5776 13.9209C17.2989 13.2881 17.2702 12.6849 17.4438 12.5176L17.753 12.1504C18.0825 11.8697 18.6393 11.7889 19.5015 12.3457C20.3625 11.7889 20.9183 11.8685 21.2431 12.1504L21.5592 12.5176C21.7316 12.6802 21.7042 13.2823 21.4231 13.9209C21.5223 13.9993 21.6288 14.0766 21.7575 14.162L24.5418 16.0336H28.7563C28.9844 16.0248 29.2103 16.0713 29.4161 16.169C29.6219 16.2666 29.8014 16.4124 29.9374 16.5939L32.1681 18.5826L32.8763 19.3371L33.3607 19.9556L34.062 21.2059C34.3545 21.7568 34.5052 22.3711 34.5002 22.9936C34.5006 23.1717 34.4629 23.3476 34.3872 23.5093C34.3115 23.671 34.1995 23.8142 34.062 23.9291C33.7962 24.1198 33.5805 24.0073 33.2569 24.0073C31.9931 23.4084 31.8564 22.0621 30.5879 21.0831L30.1081 20.6856L30.724 24.8007L32.8509 34.7991C32.8956 35.0024 32.8966 35.2125 32.8578 35.4171C32.8191 35.6216 32.7409 35.8165 32.6248 35.9899C32.5105 36.1641 32.362 36.3142 32.1888 36.4314C32.0157 36.5487 31.8198 36.6307 31.6145 36.673C31.5061 36.6955 31.3976 36.707 31.2869 36.7079C30.9205 36.7071 30.5635 36.5827 30.2788 36.3543C29.9941 36.126 29.7975 35.8078 29.7206 35.4531ZM23.5799 13.0991C23.5808 12.3404 23.8846 11.6128 24.4265 11.0766C24.9684 10.5404 25.7043 10.2391 26.4703 10.2388C27.2357 10.2403 27.9683 10.5423 28.5095 11.0784C29.0507 11.6144 29.3569 12.341 29.3584 13.0991C29.3578 13.8577 29.0531 14.5847 28.5118 15.1215C27.9705 15.6582 27.2363 15.9607 26.4703 15.9622C26.0905 15.9624 25.714 15.8884 25.3631 15.7446C25.0121 15.6008 24.6928 15.3897 24.4242 15.1238C24.1556 14.8579 23.9421 14.5426 23.7967 14.1951C23.6514 13.8476 23.5776 13.4752 23.5776 13.0991H23.5799ZM9.6492 13.0991C9.64951 12.3411 9.95251 11.614 10.4935 11.0778C11.0345 10.5416 11.7696 10.2397 12.535 10.2388C13.3009 10.2388 14.035 10.5403 14.5765 11.0766C15.1181 11.613 15.4208 12.3406 15.4208 13.0991C15.4213 13.4749 15.3489 13.8471 15.204 14.1945C15.059 14.5419 14.8447 14.8573 14.5765 15.1232C14.3083 15.3891 13.9905 15.6001 13.6399 15.744C13.2894 15.888 12.9145 15.9622 12.535 15.9622C11.7694 15.9607 11.0341 15.6584 10.4935 15.1215C9.95292 14.5846 9.65088 13.8573 9.65151 13.0991H9.6492Z" fill="#444444"/>
</g>
</svg>
