<svg width="40" height="40" viewBox="0 0 40 40" fill="none" xmlns="http://www.w3.org/2000/svg">
<g id="icon-buy">
<g id="bag">
<path id="Rectangle" d="M10.2179 12.1974C10.1012 11.0206 11.0256 10 12.2082 10H31.7918C32.9744 10 33.8988 11.0206 33.7821 12.1974L31.997 30.1974C31.8955 31.2205 31.0348 32 30.0067 32H13.9933C12.9652 32 12.1045 31.2205 12.003 30.1974L10.2179 12.1974Z" fill="#4CC66E"/>
<circle id="Ellipse" cx="26" cy="12.5" r="1.5" fill="#36A454"/>
<circle id="Ellipse_2" cx="18" cy="12.5" r="1.5" fill="#36A454"/>
<path id="Ellipse_3" d="M18 12V9C18 7.34315 19.7909 5.5 22 5.5C24.2091 5.5 26 7.34315 26 9V12" stroke="#33527D" stroke-linecap="round"/>
</g>
<g id="bag_2">
<path id="Rectangle 34624692" d="M5.37243 20.3174C5.17707 19.1018 6.11591 18 7.34709 18H20.6529C21.8841 18 22.8229 19.1018 22.6276 20.3174L21.0204 30.3174C20.8646 31.287 20.0278 32 19.0458 32H8.95424C7.97217 32 7.13541 31.287 6.97958 30.3174L5.37243 20.3174Z" fill="#FFD80C"/>
<circle id="Ellipse " cx="17" cy="20.5" r="1.5" fill="#DBBA10"/>
<circle id="Ellipse 1" cx="11" cy="20.5" r="1.5" fill="#DBBA10"/>
<path id="Ellipse_4" d="M11 20V18C11 16.3431 12.3431 15 14 15C15.6569 15 17 16.3431 17 18V20" stroke="#33527D" stroke-linecap="round"/>
</g>
</g>
</svg>
