<svg width="59" height="48" viewBox="0 0 59 48" fill="none" xmlns="http://www.w3.org/2000/svg">
<g clip-path="url(#clip0_1153_4018)">
<path d="M0.5 10.5514L22.1202 0.199822C22.6767 -0.0666068 23.3233 -0.0666073 23.8798 0.199821L45.5 10.5514L23 22.3503L0.5 10.5514Z" fill="#FED694"/>
<path d="M0.5 10.5515L23 22.3774V48L1.59407 36.7492C0.921322 36.3956 0.5 35.6981 0.5 34.9379V10.5515Z" fill="#F2CA7F"/>
<path d="M45.5 10.5515L23 22.3774V48L44.4059 36.7492C45.0787 36.3956 45.5 35.6981 45.5 34.9379V10.5515Z" fill="#E0B76E"/>
<path d="M7.91455 14.4779L30.1589 3.11316L36.9998 6.45238L14.9998 17.989L7.91455 14.4779Z" fill="#89BFE8"/>
<path d="M14.9998 17.989L7.91455 14.4779L7.91457 26.5166L14.9998 30.5288L14.9998 17.989Z" fill="#73ADD9"/>
<circle cx="44.5" cy="34" r="14" fill="url(#paint0_linear_1153_4018)"/>
<rect x="39.8403" y="27.6381" width="15.5556" height="3.11111" rx="1.55556" transform="rotate(45 39.8403 27.6381)" fill="url(#paint1_linear_1153_4018)"/>
<rect x="37.5068" y="38.5282" width="15.5556" height="3.11111" rx="1.55556" transform="rotate(-45 37.5068 38.5282)" fill="url(#paint2_linear_1153_4018)"/>
</g>
<defs>
<linearGradient id="paint0_linear_1153_4018" x1="35.9445" y1="21.3611" x2="54.6112" y2="45.2779" gradientUnits="userSpaceOnUse">
<stop stop-color="#FFE924"/>
<stop offset="0.747259" stop-color="#FFCC15"/>
<stop offset="1" stop-color="#ECC640"/>
</linearGradient>
<linearGradient id="paint1_linear_1153_4018" x1="40.3903" y1="29.288" x2="55.2395" y2="29.288" gradientUnits="userSpaceOnUse">
<stop stop-color="white" stop-opacity="0.9"/>
<stop offset="1" stop-color="white"/>
</linearGradient>
<linearGradient id="paint2_linear_1153_4018" x1="45.3439" y1="33.166" x2="45.3439" y2="48.2902" gradientUnits="userSpaceOnUse">
<stop stop-color="white" stop-opacity="0.9"/>
<stop offset="1" stop-color="white"/>
</linearGradient>
<clipPath id="clip0_1153_4018">
<rect width="58" height="48" fill="white" transform="translate(0.5)"/>
</clipPath>
</defs>
</svg>
