<svg width="59" height="48" viewBox="0 0 59 48" fill="none" xmlns="http://www.w3.org/2000/svg">
<g clip-path="url(#clip0_1153_4030)">
<path d="M0.5 10.5514L22.1202 0.199822C22.6767 -0.0666068 23.3233 -0.0666073 23.8798 0.199821L45.5 10.5514L23 22.3503L0.5 10.5514Z" fill="#FED694"/>
<path d="M0.5 10.5515L23 22.3774V48L1.59407 36.7492C0.921322 36.3956 0.5 35.6981 0.5 34.9379V10.5515Z" fill="#F2CA7F"/>
<path d="M45.5 10.5515L23 22.3774V48L44.4059 36.7492C45.0787 36.3956 45.5 35.6981 45.5 34.9379V10.5515Z" fill="#E0B76E"/>
<path d="M7.91455 14.4779L30.1589 3.11316L36.9998 6.45238L14.9998 17.989L7.91455 14.4779Z" fill="#89BFE8"/>
<path d="M14.9998 17.989L7.91455 14.4779L7.91457 26.5166L14.9998 30.5288L14.9998 17.989Z" fill="#73ADD9"/>
<circle cx="44.5" cy="34" r="14" fill="url(#paint0_linear_1153_4030)"/>
<path d="M44.7919 38.8252C45.6337 38.8252 46.3353 39.5131 46.3353 40.3597C46.3353 41.2064 45.6513 41.9119 44.7919 41.9119C43.9501 41.9119 43.2485 41.224 43.2485 40.3597C43.2485 39.5307 43.9325 38.8252 44.7919 38.8252Z" fill="white"/>
<path d="M44.8742 36.1176C45.2211 34.6859 46.1064 33.9277 46.1064 33.9277L47.2729 32.7713C47.797 32.185 48.1182 31.4195 48.1182 30.5889C48.1182 28.7484 46.5629 27.25 44.6525 27.25C42.9832 27.25 41.585 28.3942 41.2588 29.9109" stroke="white" stroke-width="2.57227" stroke-miterlimit="10" stroke-linecap="round"/>
</g>
<defs>
<linearGradient id="paint0_linear_1153_4030" x1="35.9445" y1="21.3611" x2="54.6112" y2="45.2779" gradientUnits="userSpaceOnUse">
<stop stop-color="#FFE924"/>
<stop offset="0.747259" stop-color="#FFCC15"/>
<stop offset="1" stop-color="#ECC640"/>
</linearGradient>
<clipPath id="clip0_1153_4030">
<rect width="58" height="48" fill="white" transform="translate(0.5)"/>
</clipPath>
</defs>
</svg>
