<svg width="69" height="56" viewBox="0 0 69 56" fill="none" xmlns="http://www.w3.org/2000/svg">
<g id="icon-drag" clip-path="url(#clip0_433_17808)">
<path id="swipe" d="M47.9086 3.57216L48.0869 0.985626L43.5528 3.19963L42.6528 3.63931L43.4532 4.17741L47.666 7.01639L47.8367 4.55884C57.68 5.61454 64.446 7.80086 64.446 10.3292C64.446 13.3445 54.847 15.8749 41.873 16.5797C41.8356 16.4644 41.8021 16.3492 41.7597 16.2358C41.736 16.1737 41.7066 16.1145 41.682 16.0534C41.611 15.8819 41.54 15.7103 41.4562 15.5427C41.4365 15.5023 41.4117 15.464 41.391 15.4236C41.2924 15.2373 41.194 15.0529 41.0786 14.8725C41.0619 14.8469 41.0432 14.8223 41.0274 14.7977C40.9042 14.6074 40.7739 14.421 40.633 14.2396L40.6192 14.2208C40.6005 14.1972 40.5797 14.1776 40.561 14.1539C40.425 13.9854 40.2851 13.8228 40.1372 13.669C40.0889 13.6177 40.0386 13.5703 39.9844 13.5191C39.8602 13.3959 39.7341 13.2746 39.603 13.1612C39.5182 13.0893 39.4286 13.0204 39.3399 12.9514C39.2345 12.8686 39.1297 12.7847 39.0213 12.7078C38.9129 12.6309 38.7749 12.5453 38.6488 12.4674C38.5788 12.424 38.5147 12.3757 38.4428 12.3343C38.4231 12.3225 38.4033 12.3146 38.3836 12.3038C38.2495 12.2279 38.1127 12.1617 37.9747 12.0946C37.8811 12.0483 37.7892 11.9962 37.6936 11.9568C37.5822 11.9075 37.4698 11.869 37.3574 11.8256C37.2451 11.7822 37.1051 11.727 36.976 11.6826C36.9109 11.6619 36.844 11.6473 36.7789 11.6275C36.6034 11.5763 36.4281 11.5289 36.2497 11.4865H36.224C35.7549 11.3856 35.2773 11.3292 34.7976 11.3181C34.769 11.3181 34.7405 11.3181 34.7129 11.3181C34.501 11.3181 34.289 11.3179 34.0781 11.3337C33.8809 11.3475 33.6955 11.3742 33.5063 11.4018C33.4589 11.4087 33.4077 11.4117 33.3633 11.4196C32.9032 11.4978 32.4513 11.6179 32.013 11.7784C31.9923 11.7863 31.9707 11.7912 31.95 11.7991C31.7893 11.8593 31.6326 11.931 31.4759 12.002C31.4029 12.0355 31.3288 12.0632 31.2569 12.1007C31.1445 12.1559 31.0361 12.221 30.9267 12.2821C30.8173 12.3432 30.6971 12.4053 30.5867 12.4792C30.5058 12.5295 30.429 12.5865 30.3501 12.6397C30.216 12.7314 30.0821 12.8212 29.9559 12.9218C29.9401 12.9346 29.9233 12.9444 29.9075 12.9562C29.8484 13.0035 29.7972 13.0549 29.74 13.1032C29.6178 13.2018 29.4965 13.3072 29.3822 13.4146C29.2935 13.4984 29.2097 13.5892 29.1249 13.6779C29.0402 13.7666 28.9524 13.8562 28.8715 13.9479C28.7661 14.0701 28.6664 14.1973 28.5678 14.3274C28.5166 14.3945 28.4633 14.4604 28.414 14.5245C28.3007 14.6852 28.1943 14.8529 28.0918 15.0234C28.0691 15.0608 28.0435 15.0942 28.0218 15.1326L28.0052 15.1632C27.9066 15.3436 27.8079 15.5271 27.7251 15.7114C27.7024 15.7597 27.677 15.81 27.6553 15.8553C27.5813 16.0199 27.52 16.1874 27.4579 16.354C27.4313 16.4279 27.3998 16.5 27.3751 16.5749L27.3672 16.5965C14.272 15.9115 4.5509 13.3693 4.5509 10.3343C4.5509 7.80591 11.3169 5.61959 21.1603 4.56389L21.3309 7.0212L25.5438 4.18246L26.3442 3.64412L25.4441 3.20469L20.91 0.99068L21.0883 3.57722C8.69494 4.8823 -0.00585938 7.94398 -0.00585938 11.5123C-0.00585938 15.6464 11.6708 19.8394 27.2401 20.8645C27.305 21.1179 27.3833 21.3677 27.4748 21.6127V21.6226C27.5359 21.7862 27.6088 21.9449 27.6808 22.1036C27.7133 22.1756 27.741 22.2476 27.7794 22.3185C27.8327 22.425 27.8946 22.5286 27.9517 22.6331C28.0188 22.7533 28.0819 22.8746 28.1558 22.9919C28.2002 23.0638 28.2544 23.1318 28.2978 23.2017C28.3964 23.3457 28.4951 23.4896 28.6015 23.6296C28.6114 23.6424 28.6201 23.6572 28.6299 23.6701L29.8435 21.5684C29.7436 21.3829 29.6547 21.1917 29.5774 20.9957C29.2967 20.3078 29.1599 19.5699 29.1752 18.8272C29.1904 18.0923 29.355 17.3682 29.6592 16.6991C30.1001 15.7256 30.8173 14.9032 31.7218 14.3342C32.6263 13.7651 33.678 13.4745 34.7463 13.4984C35.7701 13.5224 36.7664 13.8346 37.6207 14.3991C38.475 14.9637 39.153 15.7578 39.5765 16.6902C39.9189 17.4361 40.0874 18.2501 40.0693 19.0707C40.0552 19.7274 39.9215 20.376 39.6749 20.9848C39.2618 22.0123 38.5456 22.8894 37.6214 23.4994C36.6972 24.1094 35.6089 24.4235 34.5018 24.3995L33.3111 26.4626V26.4684C33.3466 26.4743 33.3832 26.4752 33.4187 26.4811C33.6099 26.512 33.8012 26.5351 33.9924 26.5502C34.0634 26.5561 34.1342 26.5631 34.2042 26.5661C34.3954 26.5769 34.5867 26.5779 34.7769 26.575C34.8479 26.575 34.9189 26.5748 34.9899 26.5699C35.1821 26.5601 35.3734 26.5414 35.5636 26.5177C35.6296 26.5098 35.6966 26.504 35.7607 26.4941C35.9647 26.4636 36.1658 26.4211 36.3659 26.3747L36.5168 26.3423C36.7707 26.277 37.0211 26.1986 37.2669 26.1076C37.2837 26.1017 37.2993 26.0928 37.316 26.0869C38.0424 25.8139 38.7229 25.4317 39.3339 24.9535L39.3447 24.9455C39.3576 24.9347 39.3694 24.9229 39.3832 24.913C39.5656 24.7662 39.7411 24.6172 39.9067 24.4546C39.9431 24.4201 39.9775 24.3828 40.013 24.3463C40.153 24.2073 40.289 24.0643 40.4161 23.9165C40.4713 23.8504 40.5236 23.7814 40.5778 23.7134C40.6764 23.5882 40.775 23.4621 40.8736 23.331C40.9397 23.2373 40.9987 23.1339 41.0608 23.0422C41.1229 22.9505 41.183 22.8627 41.2382 22.7681C41.253 22.7425 41.2639 22.7157 41.2777 22.6901C41.3319 22.5915 41.3763 22.4929 41.4295 22.3944C41.4956 22.2633 41.5655 22.1322 41.6266 22.0002C41.6522 21.941 41.672 21.8819 41.6957 21.8228C41.8247 21.5064 41.9323 21.1816 42.0179 20.8508C57.4552 19.7971 69.0009 15.6265 69.0009 11.518C68.9999 7.93891 60.301 4.87725 47.9086 3.57216Z" fill="#3F86F1"/>
<path id="hand" d="M41.985 36.1456C41.4197 35.8193 40.7688 35.6717 40.1181 35.7222C40.2525 35.0492 40.1738 34.351 39.893 33.7248C39.6122 33.0986 39.1431 32.5754 38.5512 32.2282C37.9858 31.9019 37.335 31.7543 36.6842 31.8048C36.8187 31.1317 36.74 30.4335 36.4592 29.8073C36.1784 29.1811 35.7093 28.6579 35.1173 28.3107C34.6165 28.0209 34.0468 27.8717 33.4682 27.8787L36.207 23.135C36.4356 22.7605 36.587 22.3441 36.6522 21.9102C36.7175 21.4763 36.6953 21.0338 36.5869 20.6087C36.4786 20.1835 36.2862 19.7844 36.0213 19.4347C35.7563 19.085 35.4241 18.7918 35.0441 18.5724C34.6642 18.3531 34.2442 18.2119 33.8089 18.1573C33.3735 18.1027 32.9317 18.1357 32.5093 18.2545C32.087 18.3732 31.6926 18.5752 31.3495 18.8487C31.0064 19.1221 30.7214 19.4614 30.5114 19.8466L23.3897 32.1819L22.0057 28.8618C21.6056 27.9078 20.8713 27.1325 19.9404 26.6812C19.0096 26.2299 17.9461 26.1336 16.9493 26.4103C16.3107 26.5912 15.7678 27.0139 15.436 27.5887C15.1041 28.1635 15.0094 28.8451 15.1721 29.4885L19.3422 45.6764C19.581 46.6225 20.0074 47.511 20.5962 48.2891C21.185 49.0672 21.9242 49.7191 22.7697 50.206L26.1058 52.1321C28.2149 53.3198 30.709 53.6225 33.041 52.9738C35.373 52.3251 37.3525 50.7781 38.5454 48.6719L43.1536 40.6902C43.5998 39.9322 43.7273 39.0283 43.5082 38.1765C43.2892 37.3247 42.7414 36.5944 41.985 36.1456ZM37.125 47.8518C36.1489 49.575 34.5293 50.8407 32.6213 51.3714C30.7133 51.9022 28.6727 51.6545 26.9471 50.6829L23.6076 48.7548C22.9497 48.3762 22.3746 47.8691 21.9165 47.2639C21.4585 46.6586 21.1267 45.9674 20.941 45.2314L16.7692 29.0425C16.7154 28.8284 16.747 28.6017 16.8574 28.4105C16.9678 28.2193 17.1483 28.0786 17.3606 28.0182C17.6967 27.9244 18.0481 27.8985 18.3943 27.942C18.7404 27.9856 19.0745 28.0976 19.3769 28.2717C19.8728 28.5569 20.2608 28.9978 20.4807 29.5259L22.499 34.3732C22.5578 34.5145 22.6553 34.6363 22.7803 34.7246C22.9054 34.8129 23.0528 34.8641 23.2057 34.8723C23.36 34.8792 23.5132 34.8434 23.6486 34.769C23.7839 34.6945 23.8961 34.5842 23.9729 34.4502L31.9311 20.6663C32.1491 20.2886 32.5082 20.013 32.9294 19.9002C33.3506 19.7873 33.7994 19.8464 34.177 20.0644C34.5547 20.2825 34.8302 20.6416 34.9431 21.0628C35.056 21.484 34.9969 21.9328 34.7789 22.3104L28.4949 33.1945C28.3859 33.3833 28.3564 33.6077 28.4128 33.8183C28.4692 34.0289 28.607 34.2085 28.7958 34.3175C28.9846 34.4265 29.209 34.4561 29.4196 34.3996C29.6302 34.3432 29.8098 34.2054 29.9188 34.0166L32.0135 30.3886C32.2315 30.0109 32.5906 29.7354 33.0118 29.6225C33.433 29.5096 33.8818 29.5687 34.2594 29.7868C34.6371 30.0048 34.9126 30.3639 35.0255 30.7851C35.1384 31.2063 35.0793 31.6551 34.8612 32.0327L32.7666 35.6608C32.6576 35.8496 32.6281 36.074 32.6845 36.2846C32.7409 36.4952 32.8787 36.6747 33.0675 36.7838C33.2563 36.8928 33.4807 36.9223 33.6913 36.8659C33.9019 36.8094 34.0815 36.6717 34.1905 36.4828L35.4473 34.306C35.6653 33.9284 36.0244 33.6528 36.4456 33.54C36.8668 33.4271 37.3156 33.4862 37.6933 33.7042C38.0709 33.9223 38.3465 34.2814 38.4593 34.7026C38.5722 35.1238 38.5131 35.5726 38.2951 35.9502L37.0383 38.127C36.9293 38.3158 36.8997 38.5402 36.9562 38.7508C37.0126 38.9614 37.1504 39.141 37.3392 39.25C37.528 39.359 37.7524 39.3886 37.963 39.3321C38.1736 39.2757 38.3532 39.1379 38.4622 38.9491L38.8811 38.2235C39.0991 37.8459 39.4583 37.5703 39.8795 37.4574C40.3007 37.3446 40.7495 37.4037 41.1271 37.6217C41.5047 37.8397 41.7803 38.1988 41.8932 38.62C42.006 39.0412 41.9469 39.49 41.7289 39.8677L37.125 47.8518Z" fill="#101010"/>
</g>
<defs>
<clipPath id="clip0_433_17808">
<rect width="69" height="56" fill="white"/>
</clipPath>
</defs>
</svg>
