<svg width="199" height="88" viewBox="0 0 199 88" fill="none" xmlns="http://www.w3.org/2000/svg">
<g id="505-img">
<g id="tape">
<path id="tape_2" opacity="0.6" d="M85.1289 0L120.373 9.53378L120.688 10.4235L119.887 11.3478L120.151 12.4258L119.447 13.2858L119.625 14.3905L118.917 15.2652L119.112 16.3091L118.443 17.0358L118.614 18.1666L117.937 18.9251L118.142 19.9265L82.3588 10.3383L83.0171 9.66266L82.7977 8.70009L83.4242 8.14326L83.2248 7.10632L83.8541 6.53886L83.6632 5.47004L84.4199 4.65512L84.1568 3.62802L85.0205 2.86972L84.6579 1.75799L85.5071 1.05378L85.1289 0Z" fill="#9AC2FF"/>
<path id="tape_3" opacity="0.6" d="M72.48 20.033L91.4743 1.16172L92.3016 1.43467L92.8022 2.48967L93.7674 2.9005L94.2461 3.85439L95.2057 4.33875L95.695 5.30325L96.61 5.74307L96.9911 6.59938L97.9698 7.10283L98.3742 7.98248L99.2581 8.39118L80.0481 27.6012L79.7052 26.7802L78.8489 26.4019L78.5929 25.6679L77.6822 25.2352L77.4184 24.4934L76.4843 24.0373L76.0586 23.0728L75.1359 22.6889L74.7908 21.682L73.7669 21.3199L73.4614 20.3526L72.48 20.033Z" fill="#9AC2FF"/>
<path id="tape_4" opacity="0.6" d="M72.5089 69.646L70.1329 22.6469L70.8738 21.9192L72.0083 22.5487L72.944 21.8107L73.9865 22.3468L74.9752 21.7042L76.0326 22.2386L76.9584 21.5993L77.8631 22.1427L78.8788 21.4986L79.8164 22.0403L80.6983 21.4033L83.1972 69.0858L82.3442 68.5347L81.5036 69.1746L80.7734 68.6171L79.8558 69.261L79.1147 68.704L78.1642 69.3496L77.1474 68.732L76.2598 69.4494L75.2621 68.6786L74.3264 69.5507L73.3846 68.777L72.5089 69.646Z" fill="#9AC2FF"/>
<path id="tape_5" opacity="0.6" d="M114.619 74.561L111.309 9.73641L112.036 8.74699L113.184 9.63813L114.106 8.6385L115.16 9.39837L116.137 8.53205L117.206 9.29113L118.121 8.42811L119.037 9.1952L120.041 8.32747L120.99 9.09283L121.86 8.23211L125.307 74.0009L124.442 73.225L123.614 74.0896L122.872 73.3074L121.966 74.176L121.213 73.3943L120.274 74.2646L119.244 73.3933L118.37 74.3644L117.356 73.283L116.436 74.4658L115.478 73.3814L114.619 74.561Z" fill="#9AC2FF"/>
<path id="tape_6" opacity="0.6" d="M86 77.2401L124.39 51.4507L125.386 51.7171L125.44 53.0076L126.545 53.4357L126.631 54.5998L127.683 55.122L127.777 56.2985L128.793 56.7684L128.802 57.8182L129.869 58.3627L129.896 59.4398L130.888 59.8732L91.985 86.1133L92.009 85.1044L91.0367 84.7073L91.1294 83.8004L90.114 83.3393L90.2006 82.4233L89.1667 81.935L89.1634 80.7515L88.1003 80.354L88.2356 79.1096L87.0177 78.749L87.1843 77.551L86 77.2401Z" fill="#9AC2FF"/>
<path id="tape_7" opacity="0.6" d="M78.6539 60.096L98.2848 71.5304L98.1833 72.3701L97.3458 73.1567L97.1468 74.1654L96.3935 74.9002L96.1298 75.9269L95.3699 76.6752L95.1377 77.6473L94.4534 78.2626L94.1762 79.3127L93.4754 79.9565L93.2652 80.8906L73.3024 69.3651L73.9625 68.7958L74.1504 67.8963L74.749 67.4336L74.9754 66.4674L75.5795 65.9951L75.8224 65.0003L76.5945 64.311L76.7759 63.3488L77.6003 62.7209L77.7439 61.6722L78.5403 61.0928L78.6539 60.096Z" fill="#9AC2FF"/>
</g>
<g id="number">
<path d="M33.6746 82C29.3069 82 25.3736 81.135 21.8745 79.4049C18.3754 77.6749 15.5712 75.3023 13.4618 72.2871C11.3525 69.2719 10.1985 65.8365 10 61.981H18.9338C19.2812 65.4164 20.8446 68.2586 23.624 70.5076C26.4283 72.7319 29.7784 73.8441 33.6746 73.8441C36.8014 73.8441 39.5808 73.115 42.0128 71.6568C44.4696 70.1987 46.3928 68.1968 47.7825 65.6511C49.1971 63.0808 49.9043 60.1768 49.9043 56.9392C49.9043 53.6274 49.1722 50.674 47.7081 48.0789C46.2688 45.4591 44.2835 43.3954 41.7522 41.8878C39.221 40.3802 36.3299 39.6141 33.079 39.5894C30.7463 39.5646 28.3515 39.923 25.8947 40.6645C23.4379 41.3812 21.4154 42.308 19.8272 43.4449L11.1912 42.4068L15.807 5.03802H55.4135V13.1939H23.5496L20.8695 35.5856H21.3161C22.8796 34.3498 24.84 33.3241 27.1976 32.5086C29.5551 31.693 32.0119 31.2852 34.568 31.2852C39.2334 31.2852 43.3901 32.3973 47.0381 34.6217C50.7108 36.8213 53.5895 39.8365 55.6741 43.6673C57.7834 47.4981 58.8381 51.8726 58.8381 56.7909C58.8381 61.635 57.7462 65.9601 55.5624 69.7662C53.4034 73.5475 50.4255 76.538 46.6286 78.7376C42.8317 80.9126 38.5137 82 33.6746 82Z" fill="#E6ECF5"/>
<path d="M165.496 82C159.888 82 155.111 80.48 151.165 77.4401C147.219 74.3755 144.204 69.9392 142.12 64.1312C140.035 58.2985 138.993 51.2548 138.993 43C138.993 34.7947 140.035 27.788 142.12 21.98C144.229 16.1473 147.257 11.6987 151.202 8.63403C155.173 5.54468 159.938 4 165.496 4C171.055 4 175.807 5.54468 179.753 8.63403C183.724 11.6987 186.751 16.1473 188.836 21.98C190.945 27.788 192 34.7947 192 43C192 51.2548 190.958 58.2985 188.873 64.1312C186.789 69.9392 183.773 74.3755 179.828 77.4401C175.882 80.48 171.105 82 165.496 82ZM165.496 73.8441C171.055 73.8441 175.373 71.1749 178.45 65.8365C181.528 60.4981 183.066 52.8859 183.066 43C183.066 36.4259 182.359 30.8279 180.944 26.2063C179.555 21.5846 177.545 18.0627 174.914 15.6407C172.308 13.2186 169.169 12.0076 165.496 12.0076C159.987 12.0076 155.682 14.7139 152.58 20.1264C149.478 25.5143 147.927 33.1388 147.927 43C147.927 49.5741 148.621 55.1597 150.011 59.7567C151.401 64.3536 153.399 67.8508 156.004 70.2481C158.635 72.6454 161.799 73.8441 165.496 73.8441Z" fill="#E6ECF5"/>
</g>
</g>
</svg>
