<svg width="18" height="18" viewBox="0 0 18 18" fill="none" xmlns="http://www.w3.org/2000/svg">
<path id="icon" d="M8.26252 5.71747H9.72127V11.5469H8.26252L6.23377 9.15115C6.12234 8.99711 6.06918 8.80857 6.08377 8.61905C6.09263 8.43152 6.17002 8.25375 6.30127 8.11942C6.36371 8.05126 6.44199 7.99953 6.5292 7.96881C6.61642 7.93809 6.70986 7.92933 6.80127 7.94331C6.99968 7.96679 7.18495 8.05453 7.32877 8.19312L8.26752 9.2823L8.26252 5.71747ZM3.01627 0.625033C2.52729 0.623064 2.04677 0.752487 1.62502 0.999753C1.20917 1.23867 0.864116 1.58346 0.625022 1.99901C0.377571 2.42044 0.248051 2.9006 0.250022 3.38921C0.252229 3.68045 0.303356 3.96925 0.401272 4.24358C0.47994 4.50985 0.598808 4.76257 0.753772 4.99301L4.62877 1.12091C4.15223 0.799792 3.59104 0.627212 3.01627 0.625033ZM14.9675 0.625033C14.6819 0.628343 14.3988 0.679428 14.13 0.776171C13.8672 0.864144 13.6155 0.98235 13.38 1.12841L17.235 5.00051C17.5951 4.54282 17.778 3.97074 17.75 3.38921C17.7543 2.9003 17.6246 2.41954 17.375 1.99901C17.1297 1.58359 16.7803 1.2392 16.3613 0.999753C15.9388 0.752054 15.4573 0.622615 14.9675 0.625033ZM17.0125 9.15115C17.0149 10.2439 16.7982 11.3261 16.375 12.3338C15.9668 13.3093 15.3782 14.1992 14.64 14.9568C13.9181 15.7061 13.0554 16.3059 12.1013 16.7217C11.1245 17.1535 10.0681 17.376 9.00002 17.375C7.93196 17.376 6.87553 17.1535 5.89877 16.7217C4.94445 16.3051 4.08173 15.7045 3.36002 14.9543C2.62209 14.1974 2.03349 13.3084 1.62502 12.3338C1.20188 11.3261 0.985115 10.2439 0.987522 9.15115C0.985115 8.05838 1.20188 6.9762 1.62502 5.96853C2.03286 5.00527 2.61847 4.12731 3.35127 3.38047C4.07689 2.63561 4.94264 2.04133 5.89877 1.63178C6.8786 1.21208 7.93397 0.996996 9.00002 0.999753C10.0664 0.998574 11.1218 1.21536 12.1013 1.63678C13.0574 2.04633 13.9232 2.6406 14.6488 3.38547C15.3811 4.13082 15.9666 5.00705 16.375 5.96853C16.7982 6.9762 17.0149 8.05838 17.0125 9.15115ZM15.4875 9.15115C15.4955 7.96461 15.1889 6.79711 14.5988 5.76744C14.0489 4.77198 13.2449 3.9398 12.2688 3.35549C11.2836 2.75826 10.1523 2.44525 9.00002 2.45117C7.84778 2.44525 6.7164 2.75826 5.73127 3.35549C4.75511 3.9398 3.95119 4.77198 3.40127 5.76744C2.81115 6.79711 2.5045 7.96461 2.51252 9.15115C2.5045 10.3377 2.81115 11.5052 3.40127 12.5349C3.95504 13.5229 4.75843 14.3485 5.73127 14.9293C6.71277 15.5369 7.84548 15.8563 9.00002 15.8511C10.1546 15.8563 11.2873 15.5369 12.2688 14.9293C13.2418 14.3482 14.0452 13.5221 14.5988 12.5336C15.1887 11.5043 15.4953 10.3373 15.4875 9.15115Z" fill="white"/>
</svg>
