<svg width="16" height="16" viewBox="0 0 16 16" fill="none" xmlns="http://www.w3.org/2000/svg">
<path d="M4.14794 11.8014C4.14923 11.7386 4.13662 11.6762 4.11097 11.6187C4.08532 11.5612 4.04726 11.5099 3.99944 11.4684C3.90742 11.3827 3.78819 11.3309 3.66194 11.3219C3.59795 11.3183 3.53402 11.3297 3.47536 11.3552C3.4167 11.3807 3.36499 11.4195 3.32444 11.4684C3.23351 11.5565 3.18035 11.6757 3.17594 11.8014C3.18035 11.927 3.23351 12.0462 3.32444 12.1343C3.36499 12.1833 3.4167 12.2221 3.47536 12.2475C3.53402 12.273 3.59795 12.2844 3.66194 12.2808C3.78819 12.2718 3.90742 12.2201 3.99944 12.1343C4.04726 12.0928 4.08532 12.0415 4.11097 11.984C4.13662 11.9265 4.14923 11.8642 4.14794 11.8014ZM12.8284 7.5263C12.8294 7.40091 12.8034 7.27674 12.7522 7.16196C12.7011 7.04719 12.6258 6.94441 12.5314 6.8604C12.3518 6.6825 12.1108 6.57789 11.8564 6.5674H9.37471C9.2865 6.5674 9.217 6.49157 9.22979 6.4043C9.28221 6.04646 9.39894 5.70024 9.57494 5.3821C9.77892 5.01729 9.89877 4.61257 9.92594 4.1968C9.95362 3.82983 9.87876 3.46252 9.70967 3.13479C9.70393 3.12365 9.69672 3.11331 9.68814 3.10417C9.56981 2.97794 9.42315 2.88067 9.2598 2.82024C9.10941 2.76461 8.94888 2.74167 8.78913 2.75269C8.75042 2.75536 8.71496 2.77506 8.69188 2.80625C8.56279 2.98069 8.47811 3.18356 8.44544 3.39772C8.38244 3.69368 8.30744 4.00443 8.22044 4.32998C8.14288 4.63412 7.988 4.91372 7.77044 5.14238C7.65344 5.2578 7.45994 5.48421 7.18994 5.8216C7.17194 5.84823 7.11344 5.91926 7.01444 6.03468C6.91544 6.15011 6.83444 6.25221 6.77144 6.341C6.70844 6.42978 6.62294 6.53633 6.51494 6.66063L6.21794 6.99358C6.12984 7.08963 6.03009 7.17462 5.92094 7.24662L5.62394 7.44639C5.54692 7.50479 5.45082 7.53323 5.35394 7.5263H5.25644C5.17359 7.5263 4.99982 7.46264 4.99982 7.54548V12C4.99982 12.0828 5.17359 12.2808 5.25644 12.2808H5.34944C5.41244 12.2808 5.49344 12.2853 5.59244 12.2941C5.67573 12.2995 5.83544 12.3474 5.83544 12.3474L6.11894 12.4273L6.25394 12.4739L6.38894 12.5205L6.65894 12.6004L6.92896 12.7009C6.92896 12.7009 8.58922 13.182 9.45344 13.2264H10.3534C11.3194 13.2264 11.8024 12.8135 11.8024 11.9878C11.8032 11.8837 11.799 11.7796 11.7899 11.6759C11.7847 11.6171 11.8132 11.5608 11.8602 11.525C11.9785 11.435 12.0719 11.3163 12.1309 11.1799C12.2169 11.0101 12.263 10.8235 12.2659 10.6338C12.266 10.4967 12.2382 10.3613 12.1846 10.2356C12.157 10.1708 12.1688 10.0947 12.216 10.0423C12.301 9.94799 12.3705 9.84078 12.4217 9.72458C12.4891 9.57169 12.5234 9.4066 12.5224 9.23988C12.5199 9.09979 12.4972 8.96078 12.4549 8.82702C12.448 8.79895 12.4396 8.77136 12.4297 8.74434C12.3859 8.62457 12.4541 8.4206 12.5384 8.32491C12.5846 8.27246 12.6273 8.20603 12.6664 8.12561C12.7649 7.9402 12.8203 7.73546 12.8284 7.5263ZM13.7869 7.51298C13.7907 7.92088 13.6771 8.32097 13.46 8.66706C13.4368 8.70416 13.4295 8.74913 13.4396 8.79173C13.4738 8.93563 13.4907 9.08306 13.4899 9.231C13.491 9.59321 13.4012 9.94981 13.2289 10.2691C13.2146 10.2957 13.2079 10.3259 13.2101 10.356C13.2166 10.4472 13.2199 10.5383 13.2199 10.6294C13.2252 11.0876 13.0791 11.5346 12.8044 11.9029C12.7826 11.9322 12.7713 11.968 12.7723 12.0045C12.7802 12.288 12.7308 12.5704 12.6268 12.8352C12.5158 13.1176 12.3453 13.3735 12.1264 13.586C11.6621 13.9968 11.0531 14.2119 10.4299 14.1853H9.45344C8.97104 14.1857 8.49043 14.1276 8.02244 14.0122C7.55444 13.8967 7.00994 13.7369 6.38894 13.5327C6.05781 13.3992 5.71439 13.2975 5.36346 13.2291C5.35413 13.2273 5.34465 13.2264 5.33515 13.2264H3.17594C3.05002 13.2278 2.92516 13.2036 2.80907 13.1555C2.69297 13.1074 2.5881 13.0364 2.50094 12.9467C2.41006 12.8607 2.33802 12.7573 2.28926 12.6427C2.2405 12.5282 2.21606 12.405 2.21744 12.2808V7.5263C2.21514 7.39998 2.23911 7.27454 2.28787 7.15772C2.33663 7.0409 2.40914 6.93518 2.50094 6.84708C2.5881 6.75743 2.69297 6.68637 2.80907 6.63826C2.92516 6.59016 3.05002 6.56604 3.17594 6.5674H5.18537C5.22153 6.5674 5.25651 6.55439 5.2836 6.53045C5.65772 6.19972 5.99235 5.82785 6.28094 5.42206C6.56894 5.05211 6.83894 4.73248 7.09094 4.46316C7.23425 4.27732 7.32299 4.05616 7.34744 3.8239C7.40319 3.50893 7.47833 3.1976 7.57244 2.89164C7.66028 2.59073 7.82266 2.31611 8.04494 2.09256C8.13316 2.00429 8.23823 1.93414 8.35409 1.88613C8.46994 1.83813 8.59428 1.81324 8.71994 1.81288C9.11155 1.80614 9.49951 1.88815 9.85394 2.05261C10.1888 2.21425 10.4596 2.48136 10.6234 2.81173C10.8218 3.24629 10.9143 3.72065 10.8934 4.1968C10.8844 4.61069 10.7962 5.0184 10.6342 5.39868C10.5901 5.50215 10.6632 5.62183 10.7757 5.62183H11.8564C12.1098 5.6193 12.3611 5.66714 12.5954 5.76247C12.8297 5.85781 13.0421 5.9987 13.2199 6.17674C13.4055 6.34673 13.5522 6.5539 13.6499 6.78436C13.7477 7.01482 13.7944 7.26325 13.7869 7.51298Z" fill="#666666"/>
</svg>
