<svg width="16" height="16" viewBox="0 0 16 16" fill="none" xmlns="http://www.w3.org/2000/svg">
<g id="icon / 16 / pg-arrow-left">
<path id="icon" d="M10.332 12.7239C10.5553 12.9443 10.5553 13.1479 10.332 13.3347C10.1087 13.5551 9.90234 13.5551 9.713 13.3347L4.655 8.31775C4.60664 8.27957 4.56759 8.23114 4.54076 8.17606C4.51393 8.12097 4.5 8.06063 4.5 7.99951C4.5 7.93839 4.51393 7.87805 4.54076 7.82296C4.56759 7.76787 4.60664 7.71944 4.655 7.68126L9.712 2.66529C9.90134 2.4449 10.1077 2.4449 10.331 2.66529C10.5543 2.85213 10.5543 3.05574 10.331 3.27613L5.712 8.01283L10.332 12.7239Z" fill="#666666"/>
</g>
</svg>
