<svg width="20" height="20" viewBox="0 0 20 20" fill="none" xmlns="http://www.w3.org/2000/svg">
<path fill-rule="evenodd" clip-rule="evenodd" d="M10 18C14.4183 18 18 14.4183 18 10C18 5.58172 14.4183 2 10 2C5.58172 2 2 5.58172 2 10C2 14.4183 5.58172 18 10 18ZM9.25 11.2251V5.9751H10.75V11.2251H9.25ZM9.125 13.1501C9.125 12.6668 9.51675 12.2751 10 12.2751C10.4832 12.2751 10.875 12.6668 10.875 13.1501C10.875 13.6333 10.4832 14.0251 10 14.0251C9.51675 14.0251 9.125 13.6333 9.125 13.1501Z" fill="#CCCCCC"/>
</svg>
