<svg width="16" height="16" viewBox="0 0 16 16" fill="none" xmlns="http://www.w3.org/2000/svg">
<path fill-rule="evenodd" clip-rule="evenodd" d="M1 8C2.08125 5.25625 4.75 3.3125 7.875 3.3125C11 3.3125 13.6687 5.25625 14.75 8C13.6687 10.7437 11 12.6875 7.875 12.6875C4.75 12.6875 2.08125 10.7437 1 8ZM7.84375 10.8123C7.83335 10.8124 7.82293 10.8125 7.8125 10.8125C6.2625 10.8125 5 9.55 5 8C5 6.45 6.2625 5.1875 7.8125 5.1875C7.82293 5.1875 7.83335 5.18756 7.84375 5.18767C9.37943 5.2045 10.625 6.46043 10.625 8C10.625 9.53957 9.37943 10.7955 7.84375 10.8123Z" fill="#666666"/>
</svg>
