<svg width="16" height="16" viewBox="0 0 16 16" fill="none" xmlns="http://www.w3.org/2000/svg">
<path d="M5.75 4.5H4.12574C3.88351 4.5 3.64952 4.58792 3.46723 4.74742L1.0915 6.82619C0.87448 7.01608 0.75 7.29041 0.75 7.57877V10.5C0.75 11.0523 1.19772 11.5 1.75 11.5H2.5M15.25 7V10.5006C15.25 11.0528 14.8023 11.5 14.25 11.5H13.5M5 11.5H11M7 8.5H14.25C14.8023 8.5 15.25 8.05228 15.25 7.5V3.5C15.25 2.94772 14.8023 2.5 14.25 2.5H7C6.44772 2.5 6 2.94772 6 3.5V7.5C6 8.05228 6.44772 8.5 7 8.5ZM5.25 12.125C5.25 12.8844 4.63439 13.5 3.875 13.5C3.11561 13.5 2.5 12.8844 2.5 12.125C2.5 11.3656 3.11561 10.75 3.875 10.75C4.63439 10.75 5.25 11.3656 5.25 12.125ZM13.5 12.125C13.5 12.8844 12.8844 13.5 12.125 13.5C11.3656 13.5 10.75 12.8844 10.75 12.125C10.75 11.3656 11.3656 10.75 12.125 10.75C12.8844 10.75 13.5 11.3656 13.5 12.125Z" stroke="#888888" stroke-width="1.5"/>
</svg>
