<svg width="16" height="16" viewBox="0 0 16 16" fill="none" xmlns="http://www.w3.org/2000/svg">
<g id="icon / 16 / pg-double-left">
<path id="icon" d="M11.8115 12.5918L7.39258 8.15136C7.35061 8.11742 7.3172 8.07507 7.29395 8.02636C7.27069 7.97765 7.25781 7.92408 7.25781 7.87011C7.25781 7.81614 7.27069 7.76257 7.29395 7.71386C7.3172 7.66515 7.35061 7.62279 7.39258 7.58886L11.8115 3.1455C11.9775 2.9515 12.1575 2.9515 12.3535 3.1455C12.5535 3.3125 12.5535 3.49152 12.3535 3.68652L8.31641 7.87988L12.3535 12.0537C12.5535 12.2477 12.5535 12.4268 12.3535 12.5928C12.3186 12.6347 12.2759 12.6691 12.2275 12.6943C12.1791 12.7196 12.1257 12.7346 12.0713 12.7393C12.0197 12.7355 11.9698 12.7199 11.9248 12.6943C11.8798 12.6687 11.8411 12.6342 11.8115 12.5918ZM8.05371 12.5918L3.63477 8.15136C3.59279 8.11742 3.55841 8.07507 3.53516 8.02636C3.5119 7.97765 3.5 7.92408 3.5 7.87011C3.5 7.81614 3.5119 7.76257 3.53516 7.71386C3.55841 7.66515 3.59279 7.62279 3.63477 7.58886L8.05371 3.1455C8.21971 2.9515 8.39968 2.9515 8.59668 3.1455C8.79068 3.3125 8.79068 3.49152 8.59668 3.68652L4.56055 7.87988L8.59668 12.0537C8.79068 12.2477 8.79068 12.4268 8.59668 12.5928C8.52555 12.6773 8.42356 12.7297 8.31348 12.7393C8.26186 12.7355 8.21197 12.7199 8.16699 12.6943C8.12201 12.6687 8.08332 12.6342 8.05371 12.5918Z" fill="#666666"/>
</g>
</svg>
