<svg width="16" height="16" viewBox="0 0 16 16" fill="none" xmlns="http://www.w3.org/2000/svg">
<path d="M12.1996 6.21804H11.712V4.92204C11.7082 4.27572 11.538 3.6412 11.2175 3.07929C10.9083 2.52924 10.4609 2.0687 9.91934 1.74279C9.39006 1.41778 8.77999 1.24708 8.15832 1.25004C7.53574 1.24734 6.92515 1.42053 6.3973 1.74954C5.8558 2.08215 5.40824 2.54676 5.09686 3.09954C4.77157 3.66715 4.59892 4.30888 4.59565 4.96254V6.24504H3.80093C3.67185 6.24127 3.54336 6.26388 3.42338 6.31148C3.3034 6.35907 3.19447 6.43065 3.1033 6.52179C3.01185 6.61265 2.94003 6.72121 2.89227 6.84078C2.84451 6.96035 2.82182 7.0884 2.8256 7.21704V13.7915C2.82275 13.918 2.84591 14.0438 2.89367 14.161C2.94143 14.2783 3.01277 14.3846 3.1033 14.4733C3.19447 14.5644 3.3034 14.636 3.42338 14.6836C3.54336 14.7312 3.67185 14.7538 3.80093 14.75H12.1996C12.3287 14.7538 12.4572 14.7312 12.5772 14.6836C12.6972 14.636 12.8061 14.5644 12.8973 14.4733C12.9878 14.3846 13.0591 14.2783 13.1069 14.161C13.1546 14.0438 13.1778 13.918 13.175 13.7915V7.17654C13.1778 7.05003 13.1546 6.92428 13.1069 6.80703C13.0591 6.68978 12.9878 6.58352 12.8973 6.49479C12.8061 6.40365 12.6972 6.33207 12.5772 6.28448C12.4572 6.23688 12.3287 6.21427 12.1996 6.21804ZM8.51504 9.82254V10.8215H7.81063V9.82254C7.65912 9.7591 7.52905 9.65368 7.43585 9.51879C7.33626 9.38377 7.28247 9.22061 7.28233 9.05304C7.27915 8.94032 7.30051 8.82825 7.34494 8.72455C7.38938 8.62084 7.45582 8.52796 7.53971 8.45229C7.7087 8.29581 7.93221 8.21107 8.16284 8.21604C8.27667 8.21334 8.38988 8.23346 8.49576 8.2752C8.60164 8.31694 8.69802 8.37946 8.77919 8.45904C8.86018 8.53519 8.9243 8.62736 8.96746 8.72965C9.01062 8.83194 9.03185 8.94209 9.0298 9.05304C9.03129 9.21913 8.98164 9.38168 8.88756 9.51879C8.7968 9.65501 8.66699 9.76085 8.51504 9.82254ZM10.1948 6.22254H6.11735V4.96254C6.11261 4.58527 6.20595 4.2132 6.38827 3.88254C6.56327 3.56437 6.82051 3.29868 7.13332 3.11304C7.44365 2.92563 7.79998 2.82751 8.16284 2.82954C8.52455 2.8271 8.87942 2.92781 9.18558 3.11979C9.49848 3.31531 9.75701 3.58612 9.9374 3.90729C10.1253 4.22964 10.2279 4.59432 10.2354 4.96704V6.21804L10.1948 6.22254Z" fill="#888888"/>
</svg>
