<svg width="45" height="44" viewBox="0 0 45 44" fill="none" xmlns="http://www.w3.org/2000/svg">
<rect width="45" height="44" fill="#1E1E1E"/>
<g id="[KBHC] mE-1-25~30-&#235;&#167;&#136;&#236;&#157;&#180;-&#236;&#163;&#188;&#235;&#172;&#184;&#235;&#176;&#176;&#236;&#134;&#161;&#236;&#161;&#176;&#237;&#154;&#140;-&#236;&#163;&#188;&#235;&#172;&#184;&#236;&#131;&#129;&#236;&#132;&#184;-pop-&#237;&#140;&#144;&#235;&#167;&#164;&#236;&#158;&#144;&#194;&#183;&#194;&#183;&#194;&#183;">
<path d="M-2620 -198C-2620 -199.105 -2619.1 -200 -2618 -200H288C289.104 -200 290 -199.105 290 -198V1336C290 1337.1 289.104 1338 288 1338H-2618C-2619.1 1338 -2620 1337.1 -2620 1336V-198Z" fill="#AEAEAE"/>
<path d="M-2618 -199H288V-201H-2618V-199ZM289 -198V1336H291V-198H289ZM288 1337H-2618V1339H288V1337ZM-2619 1336V-198H-2621V1336H-2619ZM-2618 1337C-2618.55 1337 -2619 1336.55 -2619 1336H-2621C-2621 1337.66 -2619.66 1339 -2618 1339V1337ZM289 1336C289 1336.55 288.552 1337 288 1337V1339C289.657 1339 291 1337.66 291 1336H289ZM288 -199C288.552 -199 289 -198.552 289 -198H291C291 -199.657 289.657 -201 288 -201V-199ZM-2618 -201C-2619.66 -201 -2621 -199.657 -2621 -198H-2619C-2619 -198.552 -2618.55 -199 -2618 -199V-201Z" fill="white" fill-opacity="0.1"/>
<g id="[KBHC] mE-1-30-&#235;&#167;&#136;&#236;&#157;&#180;-&#236;&#163;&#188;&#235;&#172;&#184;&#235;&#176;&#176;&#236;&#134;&#161;&#236;&#161;&#176;&#237;&#154;&#140;-&#236;&#163;&#188;&#235;&#172;&#184;&#236;&#131;&#129;&#236;&#132;&#184;-pop-&#234;&#181;&#172;&#235;&#167;&#164;&#237;&#153;&#149;&#236;&#160;&#149;" clip-path="url(#clip0_202_2)">
<rect width="375" height="667" transform="translate(-165 -120)" fill="white"/>
<g id="container">
<g id="text">
<g id="Exclamation  ICON" clip-path="url(#clip1_202_2)">
<circle id="Ellipse" cx="22.5" cy="22" r="22" fill="#E7EFFF"/>
<g id="exclamation-mark">
<path d="M22.9143 11.6226C21.9973 11.6226 21.2539 12.3659 21.2539 13.2829V24.9056C21.2539 25.8226 21.9973 26.566 22.9143 26.566C23.8313 26.566 24.5747 25.8226 24.5747 24.9056V13.2829C24.5747 12.3659 23.8313 11.6226 22.9143 11.6226Z" fill="#395DA4"/>
<path d="M22.9143 29.0566C21.9973 29.0566 21.2539 29.8 21.2539 30.717C21.2539 31.634 21.9973 32.3774 22.9143 32.3774C23.8313 32.3774 24.5747 31.634 24.5747 30.717C24.5747 29.8 23.8313 29.0566 22.9143 29.0566Z" fill="#395DA4"/>
</g>
</g>
</g>
</g>
</g>
</g>
<defs>
<clipPath id="clip0_202_2">
<rect width="375" height="667" fill="white" transform="translate(-165 -120)"/>
</clipPath>
<clipPath id="clip1_202_2">
<rect width="44" height="44" fill="white" transform="translate(0.5)"/>
</clipPath>
</defs>
</svg>
