<svg width="16" height="16" viewBox="0 0 16 16" fill="none" xmlns="http://www.w3.org/2000/svg">
<path d="M12.1714 9.01117C12.1027 9.00973 12.0344 9.0224 11.9708 9.04839C11.9072 9.07438 11.8495 9.11315 11.8013 9.16232C11.7523 9.21076 11.7137 9.26872 11.6879 9.33265C11.662 9.39659 11.6494 9.46516 11.6508 9.53417V11.4508H4.35376V9.53719C4.35518 9.46819 4.34258 9.39962 4.31671 9.33568C4.29084 9.27174 4.25225 9.21378 4.2033 9.16535C4.15509 9.11617 4.0974 9.07741 4.03376 9.05141C3.97012 9.02542 3.90187 9.01276 3.83318 9.01419C3.7645 9.01276 3.69625 9.02542 3.6326 9.05141C3.56896 9.07741 3.51127 9.11617 3.46306 9.16535C3.41412 9.21378 3.37553 9.27174 3.34966 9.33568C3.32379 9.39962 3.31118 9.46819 3.31261 9.53719V11.9768C3.31118 12.0458 3.32379 12.1144 3.34966 12.1784C3.37553 12.2423 3.41412 12.3003 3.46306 12.3487C3.51127 12.3979 3.56896 12.4366 3.6326 12.4626C3.69625 12.4886 3.7645 12.5013 3.83318 12.4998H12.1714C12.2394 12.5016 12.3071 12.489 12.37 12.463C12.433 12.437 12.4899 12.398 12.537 12.3487C12.5856 12.3 12.6239 12.242 12.6498 12.1781C12.6756 12.1142 12.6884 12.0458 12.6874 11.9768V9.53719C12.6884 9.46825 12.6756 9.3998 12.6498 9.33593C12.6239 9.27205 12.5856 9.21404 12.537 9.16535C12.4901 9.11546 12.4334 9.07597 12.3704 9.04942C12.3075 9.02287 12.2397 9.00984 12.1714 9.01117ZM7.62013 10.2537C7.72256 10.3484 7.85707 10.4003 7.99627 10.3988C8.13546 10.4003 8.26997 10.3484 8.3724 10.2537L10.8083 7.80797C10.8739 7.74243 10.922 7.66133 10.9482 7.57216C10.9753 7.48217 10.9768 7.38638 10.9527 7.29555C10.9307 7.20347 10.8838 7.11927 10.8173 7.05219C10.7514 6.98582 10.6686 6.93879 10.5781 6.91615C10.4877 6.89191 10.3923 6.89349 10.3027 6.92068C10.214 6.94699 10.1333 6.99533 10.068 7.06126L8.51534 8.61212V3.95349C8.50029 3.82608 8.43731 3.70927 8.3393 3.627C8.24428 3.54392 8.12223 3.49874 7.99627 3.50003C7.87031 3.49874 7.74825 3.54392 7.65323 3.627C7.55522 3.70927 7.49224 3.82608 7.4772 3.95349V8.61514L5.94256 7.07335C5.89468 7.02062 5.83667 6.97817 5.77202 6.94856C5.70738 6.91894 5.63745 6.90278 5.56642 6.90103C5.4966 6.89761 5.42686 6.90934 5.36196 6.93543C5.29705 6.96151 5.2385 7.00133 5.19028 7.05219C5.139 7.10172 5.09899 7.16181 5.07302 7.22835C5.04705 7.29489 5.03573 7.36629 5.03983 7.43764C5.04187 7.50894 5.05809 7.57911 5.08755 7.64401C5.11701 7.70891 5.1591 7.76723 5.21135 7.81553L7.62013 10.2537Z" fill="#222222"/>
</svg>
