<svg width="24" height="24" viewBox="0 0 24 24" fill="none" xmlns="http://www.w3.org/2000/svg">
<path d="M20 10.5V19.5909C20 20.093 19.593 20.5 19.0909 20.5H4.90909C4.40701 20.5 4 20.093 4 19.5909V10.5" fill="#FFDF6C"/>
<path d="M22 6.40909C22 5.90701 21.593 5.5 21.0909 5.5H2.90909C2.40701 5.5 2 5.90701 2 6.40909V9.59091C2 10.093 2.40701 10.5 2.90909 10.5H21.0909C21.593 10.5 22 10.093 22 9.59091V6.40909Z" fill="#FFDF6C"/>
<path d="M13.7646 5.5H10.2354V20.5H13.7646V5.5Z" fill="#EA4550"/>
<path d="M12 5.5H7.87656C7.63545 5.5 7.40422 5.40422 7.23373 5.23373L5.64282 3.64282C5.2878 3.2878 5.2878 2.7122 5.64282 2.35718L6.82245 1.17755C7.19075 0.809251 7.79257 0.825078 8.141 1.21222L12 5.5Z" fill="#EA4550"/>
<path d="M12 5.5H16.1234C16.3645 5.5 16.5958 5.40422 16.7663 5.23373L18.3572 3.64282C18.7122 3.2878 18.7122 2.7122 18.3572 2.35718L17.1775 1.17755C16.8093 0.809252 16.2074 0.825078 15.859 1.21222L12 5.5Z" fill="#EA4550"/>
<path d="M20 10.5V19.5909C20 20.093 19.593 20.5 19.0909 20.5H4.90909C4.40701 20.5 4 20.093 4 19.5909V10.5M12 5.5H7.87656C7.63545 5.5 7.40422 5.40422 7.23373 5.23373L5.64282 3.64282C5.2878 3.2878 5.2878 2.7122 5.64282 2.35718L6.82245 1.17755C7.19075 0.809251 7.79257 0.825078 8.141 1.21222L12 5.5ZM12 5.5H16.1234C16.3645 5.5 16.5958 5.40422 16.7663 5.23373L18.3572 3.64282C18.7122 3.2878 18.7122 2.7122 18.3572 2.35718L17.1775 1.17755C16.8093 0.809252 16.2074 0.825078 15.859 1.21222L12 5.5ZM10.2354 5.5H13.7646V20.5H10.2354V5.5ZM2.90909 10.5H21.0909C21.593 10.5 22 10.093 22 9.59091V6.40909C22 5.90701 21.593 5.5 21.0909 5.5H2.90909C2.40701 5.5 2 5.90701 2 6.40909V9.59091C2 10.093 2.40701 10.5 2.90909 10.5Z" stroke="#26282C" stroke-width="1.36364" stroke-linecap="round"/>
</svg>
