<svg width="20" height="20" viewBox="0 0 20 20" fill="none" xmlns="http://www.w3.org/2000/svg">
<g id="icon / 20 / share">
<path id="icon" fill-rule="evenodd" clip-rule="evenodd" d="M11.499 5.75C11.499 4.23122 12.7302 3 14.249 3C15.7678 3 16.999 4.23122 16.999 5.75C16.999 7.26878 15.7678 8.5 14.249 8.5C13.3275 8.5 12.5118 8.04671 12.0128 7.35094L8.46673 9.32098C8.48863 9.46077 8.5 9.60406 8.5 9.75C8.5 10.0539 8.45069 10.3464 8.35963 10.6197L12.0127 12.6492C12.5117 11.9533 13.3274 11.5 14.249 11.5C15.7678 11.5 16.999 12.7312 16.999 14.25C16.999 15.7688 15.7678 17 14.249 17C12.7302 17 11.499 15.7688 11.499 14.25C11.499 14.1938 11.5007 14.1379 11.504 14.0825L7.50963 11.8634C7.03277 12.2609 6.41931 12.5 5.75 12.5C4.23122 12.5 3 11.2688 3 9.75C3 8.23122 4.23122 7 5.75 7C6.5834 7 7.33022 7.37073 7.83453 7.95627L11.504 5.91764C11.5007 5.86219 11.499 5.80629 11.499 5.75ZM14.249 4.5C13.5587 4.5 12.999 5.05964 12.999 5.75C12.999 6.44036 13.5587 7 14.249 7C14.9394 7 15.499 6.44036 15.499 5.75C15.499 5.05964 14.9394 4.5 14.249 4.5ZM5.75 8.5C5.05964 8.5 4.5 9.05964 4.5 9.75C4.5 10.4404 5.05964 11 5.75 11C6.44036 11 7 10.4404 7 9.75C7 9.05964 6.44036 8.5 5.75 8.5ZM14.249 13C13.5587 13 12.999 13.5596 12.999 14.25C12.999 14.9404 13.5587 15.5 14.249 15.5C14.9394 15.5 15.499 14.9404 15.499 14.25C15.499 13.5596 14.9394 13 14.249 13Z" fill="#444444"/>
</g>
</svg>
