<svg width="20" height="20" viewBox="0 0 20 20" fill="none" xmlns="http://www.w3.org/2000/svg">
<path d="M4 17.0001C3.5875 17.0001 3.23438 16.8532 2.94062 16.5595C2.64687 16.2657 2.5 15.9126 2.5 15.5001V6.50012C2.5 6.08762 2.64687 5.7345 2.94062 5.44075C3.23438 5.147 3.5875 5.00012 4 5.00012H16C16.4125 5.00012 16.7656 5.147 17.0594 5.44075C17.3531 5.7345 17.5 6.08762 17.5 6.50012V15.5001C17.5 15.9126 17.3531 16.2657 17.0594 16.5595C16.7656 16.8532 16.4125 17.0001 16 17.0001H4Z" fill="#395DA4"/>
<path d="M6 15C5.725 15 5.48958 14.8409 5.29375 14.5227C5.09792 14.2044 5 13.8219 5 13.375V3.625C5 3.17812 5.09792 2.79557 5.29375 2.47734C5.48958 2.15911 5.725 2 6 2H14C14.275 2 14.5104 2.15911 14.7063 2.47734C14.9021 2.79557 15 3.17812 15 3.625V13.375C15 13.8219 14.9021 14.2044 14.7063 14.5227C14.5104 14.8409 14.275 15 14 15H6Z" fill="#CBD9F4"/>
<path d="M2.94062 16.5595C3.23438 16.8532 3.5875 17.0001 4 17.0001H16C16.4125 17.0001 16.7656 16.8532 17.0594 16.5595C17.3531 16.2657 17.5 15.9126 17.5 15.5001V6.50012L10 11L2.5 6.50012V15.5001C2.5 15.9126 2.64687 16.2657 2.94062 16.5595Z" fill="#A0B7E4"/>
<path d="M7 4.5C7 4.22386 7.22386 4 7.5 4H12.5C12.7761 4 13 4.22386 13 4.5C13 4.77614 12.7761 5 12.5 5H7.5C7.22386 5 7 4.77614 7 4.5Z" fill="#7D95C5"/>
<path d="M7 6.5C7 6.22386 7.22386 6 7.5 6H12.5C12.7761 6 13 6.22386 13 6.5C13 6.77614 12.7761 7 12.5 7H7.5C7.22386 7 7 6.77614 7 6.5Z" fill="#7D95C5"/>
</svg>
