<svg width="50" height="50" viewBox="0 0 50 50" fill="none" xmlns="http://www.w3.org/2000/svg">
<g id="Admonition ICON">
<path id="admonition" fill-rule="evenodd" clip-rule="evenodd" d="M44.7737 41.3105C44.9424 40.9351 45.0186 40.5247 44.9961 40.1137C44.9747 39.3489 44.7564 38.6026 44.3624 37.9472L27.7488 8.9785C27.5221 8.4269 27.1463 7.94954 26.6637 7.60004C26.1811 7.25054 25.6108 7.04275 25.0168 7C24.4151 7.04666 23.8372 7.25509 23.3439 7.6033C22.8506 7.95152 22.4603 8.42662 22.214 8.9785L5.64663 37.9195C5.23989 38.5801 5.01683 39.3377 5.00054 40.1137C4.99226 40.5215 5.07885 40.9257 5.25346 41.2942C5.42808 41.6628 5.68592 41.9856 6.00659 42.237C6.70033 42.7561 7.55016 43.0225 8.41555 42.9921H41.5842C42.4581 43.0495 43.3239 42.7939 44.027 42.2709C44.349 42.0152 44.6051 41.6858 44.7737 41.3105ZM27.3254 19.4621C27.3513 18.1623 26.2958 17.1082 24.998 17.1082C23.7001 17.1082 22.6447 18.1623 22.674 19.462C22.7453 22.6293 22.9686 25.7457 23.4035 28.8843C23.5139 29.6813 24.1998 30.2661 25.003 30.2661C25.8015 30.2661 26.4851 29.688 26.5992 28.8964C27.0554 25.733 27.2619 22.6476 27.3254 19.4621ZM27.3485 35.1535C27.3547 34.8455 27.2978 34.5394 27.1813 34.2542C27.0649 33.969 26.8913 33.7108 26.6713 33.4954C26.4563 33.2751 26.1985 33.1012 25.9138 32.9845C25.6291 32.8679 25.3235 32.8109 25.016 32.8171C24.7084 32.8109 24.4029 32.8679 24.1182 32.9845C23.8335 33.1012 23.5757 33.2751 23.3606 33.4954C22.9162 33.9335 22.6616 34.529 22.6516 35.1535C22.6359 35.4658 22.6916 35.7774 22.8145 36.0648C22.9374 36.3522 23.1242 36.6076 23.3606 36.8117C23.798 37.2376 24.375 37.49 24.9842 37.5219C25.3005 37.5265 25.6145 37.4662 25.9067 37.3445C26.1989 37.2229 26.463 37.0425 26.6829 36.8146C26.905 36.6026 27.0792 36.3454 27.194 36.0605C27.3088 35.7755 27.3615 35.4693 27.3485 35.1622V35.1535Z" fill="#DDE1E4"/>
</g>
</svg>
