<svg width="16" height="16" viewBox="0 0 16 16" fill="none" xmlns="http://www.w3.org/2000/svg">
<path d="M2 3C2 2.44772 2.44772 2 3 2H4C4.55228 2 5 2.44772 5 3V4C5 4.55228 4.55228 5 4 5H3C2.44772 5 2 4.55228 2 4V3Z" fill="#888888"/>
<path d="M2 7.5C2 6.94772 2.44772 6.5 3 6.5H4C4.55228 6.5 5 6.94772 5 7.5V8.5C5 9.05228 4.55228 9.5 4 9.5H3C2.44772 9.5 2 9.05228 2 8.5V7.5Z" fill="#888888"/>
<path d="M2 12C2 11.4477 2.44772 11 3 11H4C4.55228 11 5 11.4477 5 12V13C5 13.5523 4.55228 14 4 14H3C2.44772 14 2 13.5523 2 13V12Z" fill="#888888"/>
<path d="M6.75 3C6.75 2.44772 7.19772 2 7.75 2H13C13.5523 2 14 2.44772 14 3V4C14 4.55228 13.5523 5 13 5H7.75C7.19772 5 6.75 4.55228 6.75 4V3Z" fill="#888888"/>
<path d="M6.75 7.5C6.75 6.94772 7.19772 6.5 7.75 6.5H13C13.5523 6.5 14 6.94772 14 7.5V8.5C14 9.05228 13.5523 9.5 13 9.5H7.75C7.19772 9.5 6.75 9.05228 6.75 8.5V7.5Z" fill="#888888"/>
<path d="M6.75 12C6.75 11.4477 7.19772 11 7.75 11H13C13.5523 11 14 11.4477 14 12V13C14 13.5523 13.5523 14 13 14H7.75C7.19772 14 6.75 13.5523 6.75 13V12Z" fill="#888888"/>
</svg>
