<svg width="72" height="18" viewBox="0 0 72 18" fill="none" xmlns="http://www.w3.org/2000/svg">
<g id="icon">
<path d="M16.9186 3.20842C17.149 2.87779 17.2878 2.49269 17.3211 2.09181C17.3544 1.69093 17.281 1.28839 17.1084 0.924629C16.9859 0.820853 16.8497 0.734333 16.7035 0.667503C16.3551 0.513143 15.9708 0.456417 15.5923 0.503456C15.1841 0.546827 14.7932 0.690503 14.4548 0.921544C14.1857 1.10821 13.9578 1.34761 13.7852 1.62504C13.6169 1.86931 13.5124 2.15136 13.4809 2.44581C13.4495 2.74025 13.4922 3.03784 13.6052 3.31179C13.6839 3.37099 13.7689 3.42151 13.8586 3.46246C14.2229 3.61913 14.631 3.6437 15.0117 3.53189V4.08368C15.1457 4.07604 15.2786 4.05468 15.4082 4.01991V4.50485C16.0345 4.23866 16.5623 3.78567 16.9186 3.20842Z" fill="#CCCCCC"/>
<path d="M29.6959 12.3045C29.6514 12.5904 29.5701 12.8693 29.4539 13.1345C29.2295 13.661 28.8488 14.1068 28.3629 14.4124C28.1956 14.5171 28.0174 14.6033 27.8314 14.6696C27.4793 14.7922 27.1068 14.8466 26.7341 14.83C26.1036 14.8024 25.4907 14.6151 24.9534 14.2859C24.3697 13.9256 23.8762 13.4379 23.5103 12.8597C23.1443 12.2815 22.9155 11.6281 22.8411 10.9489C22.7747 10.3272 22.8694 9.6989 23.1162 9.12387C23.3406 8.59767 23.721 8.15205 24.2067 7.84647C24.375 7.74062 24.5545 7.65337 24.7419 7.58625C25.0903 7.46474 25.4588 7.41012 25.8277 7.42529C26.4557 7.4526 27.0662 7.63918 27.6013 7.96732C28.1896 8.32168 28.6843 8.81056 29.0444 9.39334C29.1555 9.56946 29.255 9.75257 29.3422 9.94153H32.9772C32.9721 9.9117 32.9679 9.88085 32.9628 9.85102C32.9535 9.79445 32.9426 9.73943 32.9323 9.68389C32.6745 8.15727 31.8702 6.7749 30.6678 5.79192C29.4655 4.80894 27.9461 4.2917 26.3903 4.33567C26.0242 4.33537 25.6586 4.36097 25.2962 4.41229C24.0263 4.57169 22.83 5.09366 21.8522 5.91505C20.8743 6.73644 20.1567 7.82206 19.7863 9.04056C19.5812 9.71963 19.4781 10.4251 19.4802 11.1341C19.4801 11.5016 19.5077 11.8686 19.5629 12.232C19.8021 13.8466 20.6296 15.3175 21.888 16.3649C23.1464 17.4124 24.748 17.9633 26.3882 17.913C26.6834 17.9132 26.9783 17.896 27.2714 17.8615C28.4867 17.736 29.6403 17.2664 30.5954 16.5085C31.5504 15.7506 32.2669 14.7362 32.6598 13.5855C32.6737 13.5449 32.6887 13.5048 32.7022 13.4642C32.7089 13.4441 32.7156 13.4235 32.7223 13.4035C32.8421 13.0437 32.932 12.6748 32.9912 12.3004L29.6959 12.3045Z" fill="#CCCCCC"/>
<path d="M70.5315 17.9191H62.1333V4.61287H70.1479C70.5319 4.62004 70.8978 4.77682 71.1669 5.0495C71.436 5.32218 71.5867 5.68898 71.5867 6.07103C71.5867 6.45308 71.436 6.81988 71.1669 7.09256C70.8978 7.36524 70.5319 7.52202 70.1479 7.52919H65.563V9.76465H69.5393C69.7298 9.76105 69.919 9.79525 70.0961 9.86526C70.2731 9.93527 70.4343 10.0397 70.5703 10.1724C70.7063 10.3051 70.8143 10.4634 70.8881 10.6381C70.9618 10.8128 70.9998 11.0004 70.9998 11.1899C70.9998 11.3794 70.9618 11.567 70.8881 11.7417C70.8143 11.9164 70.7063 12.0747 70.5703 12.2074C70.4343 12.3401 70.2731 12.4445 70.0961 12.5145C69.919 12.5845 69.7298 12.6187 69.5393 12.6151H65.563V15.0013H70.5336C70.9225 15.0013 71.2955 15.1549 71.5705 15.4284C71.8455 15.7019 72 16.0729 72 16.4597C72 16.8465 71.8455 17.2174 71.5705 17.491C71.2955 17.7645 70.9225 17.9181 70.5336 17.9181" fill="#CCCCCC"/>
<path d="M57.1824 12.9407C57.8756 12.5625 58.4487 11.9991 58.837 11.3141C59.1978 10.647 59.3781 9.89812 59.3603 9.14086C59.3761 8.31764 59.1708 7.50513 58.7656 6.78713C58.3748 6.10826 57.7986 5.55339 57.1038 5.18677C56.3493 4.79455 55.5076 4.59753 54.6565 4.61389H48.8792V17.9197H52.3074V13.6771C52.3074 13.6771 53.3167 13.6771 53.8199 13.6771H53.8131L56.3985 17.7664C56.4199 17.8124 56.4542 17.8514 56.4971 17.8787C56.5401 17.906 56.59 17.9206 56.641 17.9207H60.3065L57.1824 12.9407ZM52.2123 10.843V7.62536H54.4527C54.8685 7.61426 55.2725 7.76331 55.5805 8.04139C55.7358 8.18826 55.8573 8.36688 55.9366 8.56494C56.0159 8.76301 56.051 8.97581 56.0396 9.18868C56.0439 9.47912 55.9726 9.76572 55.8328 10.0207C55.6963 10.2677 55.4965 10.4742 55.2537 10.6193C55.0043 10.7691 54.7177 10.8464 54.4264 10.8425L52.2123 10.843Z" fill="#CCCCCC"/>
<path d="M11.7298 5.50612C10.793 4.71419 9.66152 4.18376 8.45108 3.96902C7.20825 3.74491 5.92769 3.85753 4.74369 4.29506C3.54742 4.70584 2.48364 5.42785 1.66298 6.38601C0.86437 7.31606 0.330244 8.44152 0.115907 9.64585C-0.222613 11.4895 0.187226 13.3915 1.25568 14.9353C2.32414 16.4791 3.96415 17.5389 5.81661 17.8826C7.06116 18.1123 8.34503 18.0023 9.53176 17.5643C10.4136 17.2565 11.2252 16.7774 11.9193 16.155C12.6134 15.5325 13.1762 14.7791 13.575 13.9385C13.9738 13.0979 14.2007 12.1868 14.2425 11.2582C14.2842 10.3297 14.14 9.40209 13.8183 8.52941C13.4069 7.35397 12.6856 6.3095 11.7298 5.50612ZM3.63199 10.8549C3.56353 10.2147 3.66108 9.5678 3.91534 8.97578C4.14627 8.43394 4.53788 7.97503 5.0379 7.66033C5.21133 7.55143 5.39615 7.46159 5.5891 7.3924C5.94817 7.26724 6.32788 7.21105 6.70804 7.22681C7.35469 7.25481 7.98339 7.44689 8.53433 7.78477C9.14014 8.14976 9.64961 8.65328 10.0204 9.25348C10.4046 9.84696 10.643 10.522 10.7164 11.2241C10.7892 11.8638 10.6941 12.5114 10.4402 13.1037C10.2092 13.6458 9.81744 14.1049 9.31717 14.4197C9.14504 14.5277 8.96161 14.6169 8.77011 14.6855C8.40754 14.8117 8.02405 14.8677 7.64031 14.8506C6.99111 14.8221 6.35998 14.6292 5.80678 14.2901C5.20597 13.9191 4.69793 13.417 4.32113 12.8219C3.94434 12.2267 3.70867 11.554 3.63199 10.8549Z" fill="#CCCCCC"/>
<path d="M43.1273 5.75708C42.9902 5.36412 42.7335 5.02339 42.3928 4.78221C42.0521 4.54103 41.6443 4.41138 41.2261 4.41128H40.0611C39.6435 4.41133 39.2363 4.54055 38.8958 4.78104C38.5553 5.02152 38.2985 5.36136 38.1609 5.75348L33.8925 17.9191H37.4546L38.03 16.0231L38.8155 12.9021H38.8088L39.8977 8.82768C39.9432 8.66883 40.0395 8.52906 40.1721 8.42955C40.3046 8.33004 40.4661 8.2762 40.6322 8.2762C40.7983 8.2762 40.9598 8.33004 41.0924 8.42955C41.2249 8.52906 41.3212 8.66883 41.3667 8.82768L42.4526 12.9036H42.4484L43.2566 16.0637L43.8254 17.9186H47.3699L43.1273 5.75708Z" fill="#CCCCCC"/>
<path d="M44.8337 13.4806C44.6554 13.3498 44.4404 13.2779 44.2189 13.2749H38.7224L38.3248 14.8542H43.8182C43.984 14.8521 44.1471 14.8119 44.2946 14.7366C44.4421 14.6614 44.5701 14.5531 44.6685 14.4204C44.7669 14.2876 44.8331 14.134 44.8617 13.9716C44.8904 13.8092 44.8808 13.6423 44.8337 13.4842" fill="#CCCCCC"/>
<path d="M13.7857 1.62247C13.9582 1.34673 14.1853 1.10878 14.4532 0.923088C14.7917 0.692047 15.1826 0.548371 15.5908 0.505C15.9692 0.457932 16.3534 0.514474 16.7019 0.668533C16.848 0.735533 16.9842 0.822039 17.1068 0.925659C16.9299 0.596359 16.6488 0.334269 16.3069 0.179993C15.9588 0.0261888 15.5752 -0.0303485 15.1973 0.0164608C14.7891 0.0597887 14.3981 0.203469 14.0597 0.434548C13.7902 0.619616 13.5615 0.857421 13.3875 1.13342C13.1411 1.45685 13.0266 1.86088 13.0669 2.26468C13.1071 2.66849 13.2998 3.04279 13.6052 3.31179C13.4918 3.0375 13.4483 2.73891 13.4797 2.44397C13.5111 2.14903 13.617 1.86703 13.7857 1.62247Z" fill="#CCCCCC"/>
<path d="M15.0117 4.08368L15.0122 4.62931C15.1476 4.59921 15.2798 4.55723 15.4082 4.50485V4.01991C15.2786 4.05468 15.1457 4.07604 15.0117 4.08368Z" fill="#CCCCCC"/>
<path d="M44.8337 13.4806C44.7734 13.2572 44.6423 13.0593 44.4591 12.9167C44.276 12.774 44.0512 12.6944 43.8187 12.6897H38.8656L38.8088 12.9021H38.8155L38.7224 13.2729H44.2194C44.4409 13.2758 44.6559 13.3478 44.8342 13.4786" fill="#CCCCCC"/>
<path d="M13.8606 3.46247C13.771 3.42141 13.6861 3.37089 13.6073 3.31179C13.74 3.59539 13.9706 3.82221 14.2572 3.95101C14.4946 4.05636 14.7544 4.10193 15.0137 4.08369V3.53241C14.633 3.64405 14.2249 3.6193 13.8606 3.46247Z" fill="#CCCCCC"/>
<path d="M17.1084 0.924629C17.281 1.28839 17.3544 1.69093 17.3211 2.09181C17.2878 2.49269 17.149 2.87779 16.9186 3.20842C16.5623 3.78567 16.0345 4.23866 15.4082 4.50485L15.4088 5.11735C16.207 4.90954 16.8916 4.3989 17.3157 3.69493C17.9496 2.68031 17.8359 1.53507 17.1089 0.923108" fill="#CCCCCC"/>
<path d="M44.8337 13.4806C44.8808 13.6387 44.8903 13.8056 44.8617 13.968C44.833 14.1304 44.7669 14.284 44.6685 14.4168C44.5701 14.5495 44.4421 14.6578 44.2946 14.733C44.147 14.8083 43.984 14.8485 43.8181 14.8506H38.3248L38.1779 15.4337H44.2189C44.4463 15.4291 44.6666 15.3535 44.8485 15.2176C45.0304 15.0817 45.1649 14.8925 45.2328 14.6765C45.3007 14.4606 45.2988 14.2289 45.2271 14.0141C45.1555 13.7993 45.0179 13.6134 44.8337 13.4806Z" fill="#CCCCCC"/>
</g>
</svg>
