<svg width="182" height="134" viewBox="0 0 182 134" fill="none" xmlns="http://www.w3.org/2000/svg">
<g id="box-3">
<g id="box">
<path id="box_2" d="M67.75 111.56L18.7436 82.3542L16.2665 27.8568L67.75 45.678V111.56Z" fill="#EEEEEE" stroke="#F8F8F8" stroke-width="0.5"/>
<path id="box_3" d="M119 81.5V15.5L68 5V69.5L119 81.5Z" fill="#E6E6E6"/>
<path id="box_4" d="M68 112L85 122.5L135.5 91.5L119 81.5L68 112Z" fill="#EEEEEE"/>
<path id="box_5" d="M67.9722 45.7248L16.682 27.4773L68.0266 5.26088L117.826 15.6152L67.9722 45.7248Z" fill="#F8F8F8" stroke="#F8F8F8" stroke-width="0.5"/>
<path id="box_6" d="M119.25 81.25V15.7562L139.252 16.244L139.748 81.25H119.25Z" fill="#F8F8F8" stroke="#F8F8F8" stroke-width="0.5"/>
<path id="box_7" d="M68 46L72.5 31L123.5 1L119 15.5L68 46Z" fill="#CCCCCC"/>
<path id="box_8" d="M68 62L119 81.5L68 112V72.5V62Z" fill="#F8F8F8"/>
<path id="box_9" d="M68 46L59.5 66.5V132.5L68 112V46Z" fill="#EEEEEE"/>
<path id="box (Stroke)" fill-rule="evenodd" clip-rule="evenodd" d="M59.5 66.5L60 131.293V113.5L59.5 66.5ZM67.5381 45.8085L68 46L59.5 66.5L60 113.5V131.293L59.5 132.5L59 66.4004L67.5381 45.8085Z" fill="white"/>
</g>
<g id="box-tape" opacity="0.6">
<path d="M49.5 13L37 18.41L68 28V27H70V26H71.5V25H74V24H75.5V23H77.5V22.5L79 22L49.5 13Z" fill="#9AC2FF"/>
<path d="M121 118L105.5 110L116 103.5L131 110.5H129.5V112H128V113H126L126.5 114L124.5 114.5V115.5H122.5V116.5H121V118Z" fill="#9AC2FF"/>
</g>
<path id="line" d="M74 69.4806C74 69.4806 126.786 73.4806 141.182 57.4806C155.578 41.4806 141.567 36.6155 135.813 40.0345C130.059 43.4535 128.768 50.1705 132.645 53.1855C136.522 56.2005 142.276 58.1285 152.615 54.6855C155.601 53.7275 158.344 52.1339 160.654 50.0144C162.965 47.8948 164.788 45.2996 166 42.4076" stroke="#666666" stroke-dasharray="2 2"/>
</g>
</svg>
