<svg width="183" height="134" viewBox="0 0 183 134" fill="none" xmlns="http://www.w3.org/2000/svg">
<g id="box-2">
<g id="box">
<path id="box_2" d="M91.2041 128.654L91.7815 51.8597L148.944 21.2576L150.099 92.2775L91.2041 128.654Z" fill="#CCCCCC"/>
<path id="box_3" d="M91.7815 51.8596L32.887 30.496C49.0541 18.948 55.7904 18.3706 57.7151 19.5254C62.3342 17.7932 71.6881 14.2134 72.15 13.7514C72.7274 13.174 77.4685 9.90692 78.5014 9.13226C80.811 7.40007 86.5849 5.66783 90.6267 5.09043C94.6685 4.51303 105.639 6.82256 113.145 8.55482C116.328 9.28929 139.128 16.8308 150.099 20.6802L91.7815 51.8596Z" fill="#F8F8F8" stroke="#F8F8F8" stroke-width="0.5"/>
<path id="box_4" d="M56.5603 106.135C62.3343 110.177 63.489 111.332 68.6856 115.373C75.8069 120.378 87.7397 128.076 91.2041 128.654L91.7815 51.8597L32.5405 30.9579C32.1556 34.8073 30 42.9678 30 46.6631C30 50.3585 31.7322 55.1316 32.887 57.0563L33.4644 71.4912C33.2719 71.6837 32.887 72.2996 32.887 73.2234C29.4226 79.5748 33.4644 93.4323 34.6192 94.5871C35.774 95.7419 50.7863 102.093 56.5603 106.135Z" fill="#EEEEEE" stroke="#EEEEEE" stroke-width="0.5"/>
<path id="box_5" d="M152.986 81.8844C153.447 85.5797 151.638 90.7378 150.676 92.8549C141.438 98.244 122.961 109.138 122.961 109.599C122.961 110.177 113.145 116.528 109.681 119.415C106.909 121.725 96.3044 126.883 91.4927 129L91.7006 99.7837C91.7006 99.7837 94.6684 97.4741 94.091 94.0097C93.7108 92.3198 93.5136 90.5454 93.5136 88.8132C93.5136 85.3488 92.3588 82.8467 91.7814 80.7296V62.2529C92.5513 61.2906 94.091 58.904 94.091 57.0563C94.091 55.2086 92.3588 52.6296 91.7814 51.8597L150.676 20.6803C151.446 25.107 153.563 34.9997 153.563 39.157C153.563 43.3142 151.638 46.6632 150.676 47.8179V72.646C151.253 74.1858 152.524 78.1891 152.986 81.8844Z" fill="#EEEEEE"/>
</g>
<g id="tape">
<path d="M32.3096 57.1718L91.1348 100.199L91.1533 116.438L32.887 71.3516L32.3096 57.1718Z" fill="#9AC2FF" fill-opacity="0.6"/>
<path d="M91.1533 100.199L150.676 56.4789V72.5536L91.1533 116.391V100.199Z" fill="#9AC2FF" fill-opacity="0.6"/>
<path d="M62.8481 48.7026L91.1533 62.7807V79.039L63.4682 63.7068L62.8481 62.2795L63.4682 61.1247L62.8481 58.7574L63.4682 57.3185L62.8481 55.547L63.6669 54.2329L62.8481 52.0977L63.6669 51.22L62.8481 48.7026Z" fill="#9AC2FF" fill-opacity="0.6"/>
<path d="M91.1533 62.7449L150.676 47.8179V61.7473L91.1533 79.0586V62.7449Z" fill="#9AC2FF" fill-opacity="0.6"/>
<path d="M92.9906 31.5712L57.4264 19.2136L71.2839 13.7515L105.896 24.4179L103.852 24.6977L103.852 25.5509L101.862 25.5507L101.862 26.6537L99.8195 26.8336L99.8192 27.7862L97.5215 27.9304L97.5194 29.0609L95.1851 29.0603L95.1853 30.3547L92.9901 30.3549L92.9906 31.5712Z" fill="#9AC2FF" fill-opacity="0.6"/>
</g>
<path id="line" opacity="0.6" d="M122.455 35.9628L122.978 35.6926C122.978 35.6926 130.207 53.4868 130.198 72.0305C130.189 90.5742 122.943 109.87 122.943 109.87L122.384 110.177C122.384 110.177 129.225 90.5846 129.243 72.0305C129.262 53.4764 122.455 35.9628 122.455 35.9628Z" fill="#888888"/>
</g>
</svg>
