<svg width="199" height="88" viewBox="0 0 199 88" fill="none" xmlns="http://www.w3.org/2000/svg">
<g id="403-img">
<g id="tape">
<path id="tape_2" opacity="0.6" d="M85.1289 0L120.373 9.53378L120.688 10.4235L119.887 11.3478L120.151 12.4258L119.447 13.2858L119.625 14.3905L118.917 15.2652L119.112 16.3091L118.443 17.0358L118.614 18.1666L117.937 18.9251L118.142 19.9265L82.3588 10.3383L83.0171 9.66266L82.7977 8.70009L83.4242 8.14326L83.2248 7.10632L83.8541 6.53886L83.6632 5.47004L84.4199 4.65512L84.1568 3.62802L85.0205 2.86972L84.6579 1.75799L85.5071 1.05378L85.1289 0Z" fill="#9AC2FF"/>
<path id="tape_3" opacity="0.6" d="M72.48 20.033L91.4743 1.16172L92.3016 1.43467L92.8022 2.48967L93.7674 2.9005L94.2461 3.85439L95.2057 4.33875L95.695 5.30325L96.61 5.74307L96.9911 6.59938L97.9698 7.10283L98.3742 7.98248L99.2581 8.39118L80.0481 27.6012L79.7052 26.7802L78.8489 26.4019L78.5929 25.6679L77.6822 25.2352L77.4184 24.4934L76.4843 24.0373L76.0586 23.0728L75.1359 22.6889L74.7908 21.682L73.7669 21.3199L73.4614 20.3526L72.48 20.033Z" fill="#9AC2FF"/>
<path id="tape_4" opacity="0.6" d="M72.509 69.646L70.133 22.6469L70.874 21.9192L72.0085 22.5487L72.9441 21.8107L73.9866 22.3468L74.9753 21.7042L76.0328 22.2386L76.9586 21.5993L77.8632 22.1427L78.8789 21.4986L79.8166 22.0403L80.6984 21.4033L83.1974 69.0858L82.3444 68.5347L81.5037 69.1746L80.7735 68.6171L79.856 69.261L79.1148 68.704L78.1643 69.3496L77.1476 68.732L76.2599 69.4494L75.2622 68.6786L74.3265 69.5507L73.3848 68.777L72.509 69.646Z" fill="#9AC2FF"/>
<path id="tape_5" opacity="0.6" d="M114.619 74.561L111.309 9.73641L112.036 8.74699L113.184 9.63813L114.106 8.6385L115.16 9.39837L116.137 8.53205L117.206 9.29113L118.121 8.42811L119.037 9.1952L120.041 8.32747L120.99 9.09283L121.86 8.23211L125.307 74.0009L124.442 73.225L123.614 74.0896L122.872 73.3074L121.966 74.176L121.213 73.3943L120.274 74.2646L119.244 73.3933L118.37 74.3644L117.356 73.283L116.436 74.4658L115.478 73.3814L114.619 74.561Z" fill="#9AC2FF"/>
<path id="tape_6" opacity="0.6" d="M87.2979 77.28L125.688 51.4906L126.684 51.757L126.738 53.0475L127.843 53.4756L127.929 54.6397L128.981 55.1618L129.075 56.3384L130.091 56.8083L130.1 57.8581L131.167 58.4026L131.194 59.4797L132.185 59.9131L93.2829 86.1532L93.3068 85.1443L92.3345 84.7471L92.4272 83.8402L91.4118 83.3792L91.4984 82.4632L90.4646 81.9748L90.4612 80.7914L89.3982 80.3939L89.5335 79.1495L88.3156 78.7888L88.4822 77.5909L87.2979 77.28Z" fill="#9AC2FF"/>
<path id="tape_7" opacity="0.6" d="M78.6541 60.096L98.2849 71.5304L98.1834 72.3701L97.3459 73.1567L97.1469 74.1654L96.3936 74.9002L96.1299 75.9269L95.37 76.6752L95.1378 77.6473L94.4535 78.2626L94.1763 79.3127L93.4755 79.9565L93.2653 80.8906L73.3026 69.3651L73.9626 68.7958L74.1506 67.8963L74.7491 67.4336L74.9756 66.4674L75.5796 65.9951L75.8226 65.0003L76.5946 64.311L76.7761 63.3488L77.6005 62.7209L77.7441 61.6722L78.5405 61.0928L78.6541 60.096Z" fill="#9AC2FF"/>
</g>
<g id="number">
<path d="M7 65.7471V58.1406L40.5582 5.044H46.0767V16.8267H42.348L16.9929 56.9474V57.544H62.1847V65.7471H7ZM42.9446 81.4076V5.044H51.7443V81.4076H42.9446Z" fill="#E6ECF5"/>
<path d="M165.592 82.4517C160.67 82.4517 156.283 81.6065 152.43 79.9162C148.602 78.2258 145.557 75.8767 143.295 72.8689C141.058 69.8363 139.839 66.3189 139.641 62.3167H149.037C149.236 64.7777 150.081 66.903 151.572 68.6928C153.064 70.4577 155.015 71.8249 157.426 72.7944C159.838 73.7638 162.51 74.2486 165.443 74.2486C168.724 74.2486 171.633 73.6768 174.168 72.5334C176.704 71.3899 178.692 69.799 180.134 67.7606C181.576 65.7223 182.297 63.3608 182.297 60.6761C182.297 57.8672 181.601 55.3938 180.209 53.256C178.817 51.0934 176.778 49.403 174.094 48.185C171.409 46.9669 168.128 46.3579 164.25 46.3579H158.135V38.1548H164.25C167.283 38.1548 169.942 37.6079 172.229 36.5142C174.541 35.4204 176.343 33.8792 177.636 31.8906C178.953 29.902 179.612 27.5653 179.612 24.8806C179.612 22.2954 179.04 20.0458 177.897 18.1317C176.754 16.2177 175.138 14.7262 173.05 13.6573C170.987 12.5884 168.55 12.0539 165.741 12.0539C163.107 12.0539 160.621 12.5387 158.284 13.5081C155.972 14.4527 154.083 15.8324 152.616 17.647C151.15 19.4368 150.354 21.5994 150.23 24.1349H141.281C141.43 20.1328 142.636 16.6278 144.898 13.62C147.16 10.5873 150.118 8.22582 153.772 6.53548C157.451 4.84514 161.491 3.99997 165.891 3.99997C170.614 3.99997 174.665 4.957 178.046 6.87106C181.427 8.76027 184.025 11.2585 185.839 14.3657C187.654 17.473 188.561 20.8288 188.561 24.4332C188.561 28.7336 187.43 32.4002 185.168 35.4329C182.931 38.4655 179.886 40.566 176.033 41.7343V42.3309C180.855 43.1264 184.621 45.1772 187.331 48.4833C190.04 51.7645 191.395 55.8288 191.395 60.6761C191.395 64.8274 190.264 68.5561 188.002 71.8622C185.765 75.1434 182.707 77.7287 178.829 79.6179C174.951 81.5071 170.539 82.4517 165.592 82.4517Z" fill="#E6ECF5"/>
</g>
</g>
</svg>
