<svg width="20" height="20" viewBox="0 0 20 20" fill="none" xmlns="http://www.w3.org/2000/svg">
<path d="M10.0003 8.28209C10.3491 8.27334 10.696 8.33606 11.0189 8.46625C11.3417 8.59644 11.6334 8.79124 11.8753 9.03824C12.1185 9.27683 12.3103 9.5611 12.4391 9.87409C12.568 10.1871 12.6313 10.5223 12.6253 10.8599C12.6304 11.1991 12.5648 11.5357 12.4323 11.849C12.2999 12.1623 12.1035 12.4456 11.8553 12.6815C11.6151 12.9253 11.3265 13.1182 11.0075 13.2482C10.6885 13.3783 10.3457 13.4427 10.0003 13.4377C9.65488 13.4427 9.31209 13.3783 8.99305 13.2482C8.67401 13.1182 8.38549 12.9253 8.14528 12.6815C7.89704 12.4456 7.70064 12.1623 7.56821 11.849C7.43578 11.5357 7.37012 11.1991 7.37528 10.8599C7.37012 10.5207 7.43578 10.1841 7.56821 9.87077C7.70064 9.55747 7.89704 9.27413 8.14528 9.03824C8.38549 8.79447 8.67401 8.60161 8.99305 8.47156C9.31209 8.34151 9.65488 8.27702 10.0003 8.28209ZM17.0003 5.7043C17.2311 5.69964 17.4604 5.74145 17.6741 5.82717C17.8878 5.91288 18.0813 6.04068 18.2428 6.20267C18.4077 6.36123 18.5379 6.5513 18.6252 6.76115C18.7124 6.97101 18.755 7.19619 18.7503 7.42283V15.1562C18.7516 15.3798 18.7074 15.6014 18.6203 15.808C18.5331 16.0146 18.4048 16.202 18.2428 16.3592C18.0839 16.5257 17.8912 16.6576 17.6772 16.7464C17.4632 16.8352 17.2326 16.8789 17.0003 16.8747H3.00028C2.77106 16.8755 2.54413 16.8301 2.33345 16.7414C2.12277 16.6528 1.93281 16.5227 1.77528 16.3592C1.60877 16.2045 1.47629 16.0179 1.386 15.811C1.29571 15.6041 1.24952 15.3813 1.25028 15.1562V7.42283C1.24603 7.1947 1.29056 6.96824 1.381 6.75807C1.47143 6.5479 1.60575 6.35869 1.77528 6.20267C1.93531 6.04358 2.12613 5.91753 2.3365 5.83195C2.54688 5.74636 2.77257 5.70296 3.00028 5.7043H5.10028C5.25827 5.70517 5.41221 5.65525 5.5386 5.56216C5.66499 5.46907 5.75689 5.33793 5.80028 5.18874L6.32528 3.6077C6.36856 3.46111 6.46158 3.33346 6.58891 3.24593C6.71623 3.15841 6.87021 3.11627 7.02528 3.12651H12.9753C13.1303 3.11627 13.2843 3.15841 13.4116 3.24593C13.539 3.33346 13.632 3.46111 13.6753 3.6077L14.2003 5.18874C14.2437 5.33793 14.3356 5.46907 14.462 5.56216C14.5883 5.65525 14.7423 5.70517 14.9003 5.7043H17.0003ZM10.0003 15.1562C10.5765 15.166 11.1486 15.0597 11.6813 14.844C12.2141 14.6282 12.6961 14.3075 13.0978 13.9017C13.511 13.5073 13.8376 13.0339 14.0573 12.5107C14.277 11.9875 14.3853 11.4257 14.3753 10.8599C14.3853 10.2941 14.277 9.73222 14.0573 9.20906C13.8376 8.68589 13.511 8.2125 13.0978 7.81809C12.6961 7.41226 12.2141 7.09156 11.6813 6.87579C11.1486 6.66003 10.5765 6.55376 10.0003 6.56356C9.42409 6.55376 8.85196 6.66003 8.31922 6.87579C7.78647 7.09156 7.30441 7.41226 6.90278 7.81809C6.48951 8.2125 6.16295 8.68589 5.94323 9.20906C5.72351 9.73222 5.6153 10.2941 5.62528 10.8599C5.6153 11.4257 5.72351 11.9875 5.94323 12.5107C6.16295 13.0339 6.48951 13.5073 6.90278 13.9017C7.30441 14.3075 7.78647 14.6282 8.31922 14.844C8.85196 15.0597 9.42409 15.166 10.0003 15.1562ZM16.4053 8.6258C16.4851 8.62617 16.564 8.60945 16.6365 8.5768C16.7091 8.54415 16.7735 8.49636 16.8253 8.43676C16.9378 8.32103 17.0005 8.16712 17.0003 8.00713C17.0014 7.93028 16.9864 7.85404 16.9563 7.7831C16.9262 7.71216 16.8816 7.64803 16.8253 7.59468C16.7709 7.53937 16.7056 7.49558 16.6334 7.46602C16.5612 7.43646 16.4835 7.42176 16.4053 7.42283C15.9886 7.42283 15.7803 7.61759 15.7803 8.00713C15.7773 8.09087 15.793 8.17425 15.8263 8.25142C15.8595 8.32859 15.9095 8.39771 15.9728 8.45394C16.0894 8.56326 16.2441 8.62473 16.4053 8.6258Z" fill="#888888"/>
</svg>
