<svg width="16" height="16" viewBox="0 0 16 16" fill="none" xmlns="http://www.w3.org/2000/svg">
<path d="M13.6 7.5V13.8636C13.6 14.2151 13.3151 14.5 12.9636 14.5H3.03636C2.68491 14.5 2.4 14.2151 2.4 13.8636V7.5" fill="#FFDF6C"/>
<path d="M15 4.63636C15 4.28491 14.7151 4 14.3636 4H1.63636C1.28491 4 1 4.28491 1 4.63636V6.86364C1 7.21509 1.28491 7.5 1.63636 7.5H14.3636C14.7151 7.5 15 7.21509 15 6.86364V4.63636Z" fill="#FFDF6C"/>
<path d="M9.23523 4H6.76477V14.5H9.23523V4Z" fill="#EA4550"/>
<path d="M8 4H5.11359C4.94482 4 4.78295 3.93295 4.66361 3.81361L3.54998 2.69998C3.30146 2.45146 3.30146 2.04854 3.54998 1.80002L4.37572 0.974282C4.63352 0.716476 5.0548 0.727554 5.2987 0.998555L8 4Z" fill="#EA4550"/>
<path d="M8 4H10.8864C11.0552 4 11.217 3.93295 11.3364 3.81361L12.45 2.69998C12.6985 2.45146 12.6985 2.04854 12.45 1.80002L11.6243 0.974283C11.3665 0.716476 10.9452 0.727555 10.7013 0.998555L8 4Z" fill="#EA4550"/>
<path d="M13.6 7.5V13.8636C13.6 14.2151 13.3151 14.5 12.9636 14.5H3.03636C2.68491 14.5 2.4 14.2151 2.4 13.8636V7.5M8 4H5.11359C4.94482 4 4.78295 3.93295 4.66361 3.81361L3.54998 2.69998C3.30146 2.45146 3.30146 2.04854 3.54998 1.80002L4.37572 0.974282C4.63352 0.716476 5.0548 0.727554 5.2987 0.998555L8 4ZM8 4H10.8864C11.0552 4 11.217 3.93295 11.3364 3.81361L12.45 2.69998C12.6985 2.45146 12.6985 2.04854 12.45 1.80002L11.6243 0.974283C11.3665 0.716476 10.9452 0.727555 10.7013 0.998555L8 4ZM6.76477 4H9.23523V14.5H6.76477V4ZM1.63636 7.5H14.3636C14.7151 7.5 15 7.21509 15 6.86364V4.63636C15 4.28491 14.7151 4 14.3636 4H1.63636C1.28491 4 1 4.28491 1 4.63636V6.86364C1 7.21509 1.28491 7.5 1.63636 7.5Z" stroke="#26282C" stroke-width="0.954546" stroke-linecap="round"/>
</svg>
