<svg width="24" height="24" viewBox="0 0 24 24" fill="none" xmlns="http://www.w3.org/2000/svg">
<path d="M15.6154 17H3.625C3.27982 17 3 16.7202 3 16.375V6.625C3 6.27982 3.27982 6 3.625 6H18.375C18.7202 6 19 6.27982 19 6.625V10.8889M3.61538 6.61111L9.88002 11.277C10.5446 11.772 11.4554 11.772 12.12 11.277L18.3846 6.61111M20.6477 18.6801C19.8816 19.0251 19.0355 19.0932 18.2405 18.8738C17.4455 18.6544 16.746 18.1598 16.2505 17.4666C15.7551 16.7734 15.4913 15.9204 15.5002 15.0399C15.5091 14.1594 15.7901 13.3006 16.2997 12.5967C16.8092 11.8928 17.5189 11.3832 18.3185 11.1468C19.1181 10.9104 19.9631 10.9606 20.7223 11.2894C21.4815 11.6183 22.1126 12.2074 22.5176 12.9656C22.9226 13.7237 23.079 14.6084 22.9624 15.4826C22.8737 15.8698 22.4773 16.9524 21.4481 16.9524C20.1999 16.9524 19.8473 15.4156 20.6477 13.5635M20.1999 14.1796C20.0959 13.9742 19.7631 13.5635 19.2638 13.5635C18.6397 13.5635 18.0156 14.0516 17.7036 15.0399C17.3916 16.0281 17.8596 16.4902 18.3277 16.6443C18.7957 16.7983 19.7481 16.5981 20.1999 15.72" stroke="#222222" stroke-width="1.2" stroke-linecap="round"/>
</svg>
