<svg width="16" height="16" viewBox="0 0 16 16" fill="none" xmlns="http://www.w3.org/2000/svg">
<path d="M10.6684 13.8994L8.21998 11.2401C8.18869 11.2093 8.16821 11.1694 8.16152 11.126C8.15484 11.0826 8.16235 11.0382 8.18293 10.9994C8.19864 10.9599 8.22608 10.9262 8.26169 10.9028C8.29731 10.8795 8.33935 10.8677 8.3819 10.869H9.92761V2.26249C9.92626 2.23288 9.93097 2.20328 9.94161 2.17561C9.95225 2.14793 9.96852 2.12277 9.98936 2.10169C10.0104 2.08079 10.0355 2.0645 10.0632 2.05386C10.0909 2.04321 10.1206 2.03844 10.1502 2.03986H11.4719C11.5016 2.03851 11.5313 2.04328 11.5589 2.05392C11.5866 2.06457 11.6117 2.08084 11.6328 2.10169C11.6536 2.12277 11.6699 2.14793 11.6805 2.17561C11.6912 2.20328 11.6959 2.23288 11.6945 2.26249V10.8701H13.2402C13.2833 10.8692 13.3258 10.882 13.3613 10.9064C13.3968 10.9308 13.4235 10.9656 13.4381 11.0062C13.4545 11.0449 13.4598 11.0875 13.4532 11.129C13.4467 11.1706 13.4286 11.2095 13.4011 11.2413L10.9897 13.9006C10.9436 13.9407 10.8845 13.9627 10.8234 13.9624C10.7946 13.9632 10.7659 13.9581 10.7392 13.9473C10.7125 13.9364 10.6884 13.9201 10.6684 13.8994ZM4.52806 13.9613C4.49847 13.9625 4.46898 13.9577 4.44134 13.947C4.41369 13.9364 4.38867 13.9201 4.36751 13.8994C4.34678 13.8782 4.33039 13.8531 4.31976 13.8254C4.30912 13.7977 4.30427 13.7683 4.30548 13.7386V5.12983H2.75978C2.71626 5.13298 2.67305 5.12121 2.6371 5.09648C2.60114 5.07175 2.57482 5.03558 2.56217 4.99381C2.54539 4.95504 2.53962 4.91231 2.54598 4.87055C2.55234 4.82878 2.57056 4.78959 2.59812 4.75758L5.01055 2.09943C5.03052 2.07899 5.05429 2.06293 5.08081 2.05228C5.10732 2.04163 5.13596 2.03664 5.16452 2.03759C5.22597 2.03736 5.28536 2.05931 5.33193 2.09943L7.77921 4.75758C7.80696 4.78947 7.82507 4.82864 7.83163 4.87041C7.83819 4.91218 7.83289 4.95494 7.81626 4.99381C7.80153 5.03426 7.7746 5.06907 7.73914 5.09346C7.70368 5.11785 7.66141 5.13056 7.61838 5.12983H6.07267V13.7386C6.07344 13.7682 6.06846 13.7977 6.05785 13.8253C6.04724 13.8529 6.03129 13.878 6.01092 13.8994C5.98977 13.9201 5.96474 13.9364 5.9371 13.947C5.90945 13.9577 5.87969 13.9625 5.85009 13.9613H4.52806Z" fill="#666666"/>
</svg>
