<svg width="16" height="16" viewBox="0 0 16 16" fill="none" xmlns="http://www.w3.org/2000/svg">
<path d="M8.48121 1.5C8.48121 1.23421 8.26574 1.01875 7.99996 1.01875C7.73417 1.01875 7.51871 1.23421 7.51871 1.5H8.48121ZM3.53125 10.026L3.96971 10.2244L4.0125 10.1298V10.026H3.53125ZM2.5 12.3052L2.06154 12.1068L1.75404 12.7865H2.5V12.3052ZM13.5 12.3052V12.7865H14.246L13.9385 12.1068L13.5 12.3052ZM12.4688 10.026H11.9875V10.1298L12.0303 10.2244L12.4688 10.026ZM5.45627 12.474C5.45627 13.8681 6.60194 14.9812 8.00002 14.9812V14.0188C7.11723 14.0188 6.41877 13.3204 6.41877 12.474H5.45627ZM8.00002 14.9812C9.39811 14.9812 10.5438 13.8681 10.5438 12.474H9.58127C9.58127 13.3204 8.88282 14.0188 8.00002 14.0188V14.9812ZM7.51871 1.5V2.85065H8.48121V1.5H7.51871ZM4.0125 7.57795C4.0125 5.42749 5.78962 3.66959 8 3.66959V2.70709C5.27433 2.70709 3.05 4.87977 3.05 7.57795H4.0125ZM4.0125 10.026V7.57795H3.05V10.026H4.0125ZM2.93846 12.5036L3.96971 10.2244L3.09279 9.82761L2.06154 12.1068L2.93846 12.5036ZM13.5 11.824H2.5V12.7865H13.5V11.824ZM12.0303 10.2244L13.0615 12.5036L13.9385 12.1068L12.9072 9.82761L12.0303 10.2244ZM11.9875 7.57795V10.026H12.95V7.57795H11.9875ZM8 3.66959C10.2104 3.66959 11.9875 5.42749 11.9875 7.57795H12.95C12.95 4.87977 10.7257 2.70709 8 2.70709V3.66959Z" fill="#3F86F1"/>
</svg>
