<svg width="18" height="18" viewBox="0 0 18 18" fill="none" xmlns="http://www.w3.org/2000/svg">
<path d="M2.35938 6.62939H15.6927V14.9257C15.6927 16.0712 14.7641 16.9998 13.6186 16.9998H4.43345C3.28797 16.9998 2.35938 16.0712 2.35938 14.9257V6.62939Z" fill="#B1B1B1"/>
<mask id="mask0_1180_1892" style="mask-type:alpha" maskUnits="userSpaceOnUse" x="0" y="1" width="18" height="9">
<path d="M3.24814 9.2963C2.35635 9.2963 1.55658 8.90232 1.01339 8.27892C0.23841 7.38951 0.662817 6.09506 1.32555 5.11914L2.43671 3.48285L3.78133 1.51625C4.00222 1.19319 4.36834 1 4.75969 1H13.4375C13.8371 1 14.2099 1.20138 14.4289 1.53563L15.7272 3.51713L16.787 5.14624C17.4116 6.1064 17.811 7.35854 17.075 8.23619C16.5314 8.88426 15.7157 9.2963 14.8037 9.2963C13.2673 9.2963 12.004 8.12691 11.8554 6.62963H11.8268C11.6856 8.12691 10.4855 9.2963 9.02592 9.2963C7.56634 9.2963 6.36623 8.12691 6.225 6.62963H6.19647C6.04781 8.12691 4.78454 9.2963 3.24814 9.2963Z" fill="#D9D9D9"/>
</mask>
<g mask="url(#mask0_1180_1892)">
<path d="M3.24814 9.2963C2.35635 9.2963 1.55658 8.90232 1.01339 8.27892C0.23841 7.38951 0.662817 6.09506 1.32555 5.11914L2.43671 3.48285L3.78133 1.51625C4.00222 1.19319 4.36834 1 4.75969 1H13.4375C13.8371 1 14.2099 1.20138 14.4289 1.53563L15.7272 3.51713L16.787 5.14624C17.4116 6.1064 17.811 7.35854 17.075 8.23619C16.5314 8.88426 15.7157 9.2963 14.8037 9.2963C13.2673 9.2963 12.004 8.12691 11.8554 6.62963H11.8268C11.6856 8.12691 10.4855 9.2963 9.02592 9.2963C7.56634 9.2963 6.36623 8.12691 6.225 6.62963H6.19647C6.04781 8.12691 4.78454 9.2963 3.24814 9.2963Z" fill="#A2A2A2"/>
<path d="M6.21094 6.37723L7.276 1H11.1559L11.8406 6.37723V9.2963H6.21094V6.37723Z" fill="black" fill-opacity="0.13"/>
<rect x="0.581543" y="6.3335" width="16.8889" height="3.55556" fill="black" fill-opacity="0.32"/>
</g>
<path d="M7 13C7 12.4477 7.44772 12 8 12H10C10.5523 12 11 12.4477 11 13V17H7V13Z" fill="#D7D7D7"/>
</svg>
