<svg width="18" height="19" viewBox="0 0 18 19" fill="none" xmlns="http://www.w3.org/2000/svg">
<path fill-rule="evenodd" clip-rule="evenodd" d="M14.0966 5.59662C14.4261 5.26712 14.4261 4.73288 14.0966 4.40338C13.7671 4.07387 13.2329 4.07387 12.9034 4.40338L9 8.30676L5.09662 4.40338C4.76712 4.07387 4.23288 4.07387 3.90338 4.40338C3.57387 4.73288 3.57387 5.26712 3.90338 5.59662L7.80676 9.5L3.90338 13.4034C3.57387 13.7329 3.57387 14.2671 3.90338 14.5966C4.23288 14.9261 4.76712 14.9261 5.09662 14.5966L9 10.6932L12.9034 14.5966C13.2329 14.9261 13.7671 14.9261 14.0966 14.5966C14.4261 14.2671 14.4261 13.7329 14.0966 13.4034L10.1932 9.5L14.0966 5.59662Z" fill="#888888"/>
</svg>
