<svg width="24" height="24" viewBox="0 0 24 24" fill="none" xmlns="http://www.w3.org/2000/svg">
<path d="M12.7501 1.74976C12.7501 1.33554 12.4143 0.999756 12.0001 0.999756C11.5859 0.999756 11.2501 1.33554 11.2501 1.74976V11.2503H1.75C1.33579 11.2503 1 11.5861 1 12.0003C1 12.4146 1.33579 12.7503 1.75 12.7503H11.2501V22.2504C11.2501 22.6646 11.5859 23.0004 12.0001 23.0004C12.4143 23.0004 12.7501 22.6646 12.7501 22.2504V12.7503H22.2506C22.6648 12.7503 23.0006 12.4146 23.0006 12.0003C23.0006 11.5861 22.6648 11.2503 22.2506 11.2503H12.7501V1.74976Z" fill="#888888"/>
</svg>
