<svg width="15" height="16" viewBox="0 0 15 16" fill="none" xmlns="http://www.w3.org/2000/svg">
<path d="M10 10.5H3.125V3C3.125 2.83424 3.19085 2.67527 3.30806 2.55806C3.42527 2.44085 3.58424 2.375 3.75 2.375H12.5C12.6658 2.375 12.8247 2.44085 12.9419 2.55806C13.0592 2.67527 13.125 2.83424 13.125 3V12.0625C13.125 12.4769 12.9604 12.8743 12.6674 13.1674C12.3743 13.4604 11.9769 13.625 11.5625 13.625M10 10.5V12.0625C10 12.4769 10.1646 12.8743 10.4576 13.1674C10.7507 13.4604 11.1481 13.625 11.5625 13.625M10 10.5H1.875V12.0625C1.875 12.4769 2.03962 12.8743 2.33265 13.1674C2.62567 13.4604 3.0231 13.625 3.4375 13.625H11.5625M5.625 5.1875H10.4576M5.625 8H10.4576" stroke="#3F86F1" stroke-width="1.125" stroke-linecap="round" stroke-linejoin="round"/>
</svg>
