<svg width="20" height="20" viewBox="0 0 20 20" fill="none" xmlns="http://www.w3.org/2000/svg">
<path d="M15.25 3.25012V7.25012H11.25" stroke="#444444" stroke-width="1.5" stroke-linecap="round"/>
<path d="M16.9161 11.2587C16.9558 10.8464 16.6537 10.48 16.2414 10.4404C15.8291 10.4007 15.4627 10.7028 15.423 11.1151L16.9161 11.2587ZM10.0142 16.0217C7.013 16.0217 4.58008 13.5888 4.58008 10.5876H3.08008C3.08008 14.4172 6.18457 17.5217 10.0142 17.5217V16.0217ZM4.58008 10.5876C4.58008 7.58649 7.013 5.15356 10.0142 5.15356V3.65356C6.18457 3.65356 3.08008 6.75806 3.08008 10.5876H4.58008ZM10.0142 5.15356C11.8167 5.15356 13.4143 6.03041 14.404 7.38407L15.6149 6.49872C14.3548 4.77537 12.3154 3.65356 10.0142 3.65356V5.15356ZM15.423 11.1151C15.1583 13.8684 12.8372 16.0217 10.0142 16.0217V17.5217C13.6175 17.5217 16.5781 14.7738 16.9161 11.2587L15.423 11.1151Z" fill="#444444"/>
</svg>
