<svg width="53" height="53" viewBox="0 0 53 53" fill="none" xmlns="http://www.w3.org/2000/svg">
<path d="M26.5 13.5001C24.3511 13.4918 22.2153 13.8398 20.1775 14.5302C18.3134 15.1382 16.5691 16.0729 15.0243 17.2915C13.5932 18.4047 12.4092 19.8099 11.5491 21.416C10.7 22.9571 10.2528 24.6919 10.25 26.4565C10.2537 28.7527 10.9896 30.9863 12.3481 32.8252C13.7671 34.8106 15.665 36.395 17.8608 37.4274L17.4407 38.9746C16.641 41.7506 16.2318 43.2262 16.213 43.4015V43.5528C16.2182 43.5989 16.2346 43.643 16.2606 43.6812C16.2867 43.7195 16.3217 43.7506 16.3624 43.7719C16.4466 43.8136 16.5393 43.8347 16.6331 43.8333L16.7522 43.8026C18.9106 42.5658 20.9858 41.1858 22.9642 39.6715L23.6138 39.2157C24.5676 39.3366 25.5279 39.3974 26.4892 39.3976C28.6381 39.4059 30.7738 39.058 32.8116 38.3676C34.6795 37.7614 36.4274 36.8274 37.9757 35.6084C39.4068 34.4952 40.5908 33.09 41.4509 31.4839C42.3 29.9428 42.7472 28.208 42.75 26.4434C42.7472 24.6788 42.3 22.944 41.4509 21.4028C40.5893 19.8015 39.4054 18.4009 37.9757 17.2915C36.4309 16.0729 34.6866 15.1382 32.8225 14.5302C30.7847 13.8398 28.6489 13.4918 26.5 13.5001ZM18.4714 30.0572C18.4753 30.18 18.4532 30.3023 18.4065 30.4157C18.3598 30.5291 18.2896 30.6311 18.2007 30.7147C18.0188 30.8876 17.7767 30.9806 17.5273 30.9733C17.4017 30.9778 17.2765 30.9568 17.159 30.9117C17.0415 30.8665 16.9341 30.798 16.8431 30.7103C16.7542 30.6267 16.684 30.5247 16.6373 30.4113C16.5906 30.2979 16.5685 30.1757 16.5725 30.0529V24.4579H15.1109C14.9345 24.4984 14.7496 24.4767 14.5869 24.3965C14.4199 24.3183 14.2754 24.1984 14.1669 24.048C14.0581 23.8991 14.0003 23.7183 14.0023 23.533C14.0003 23.3478 14.0581 23.167 14.1669 23.018C14.2754 22.8676 14.4199 22.7477 14.5869 22.6696C14.7496 22.5893 14.9345 22.5677 15.1109 22.6082H19.9047C20.0812 22.5677 20.2661 22.5893 20.4287 22.6696C20.5957 22.7477 20.7403 22.8676 20.8488 23.018C20.9576 23.167 21.0154 23.3478 21.0133 23.533C21.0154 23.7183 20.9576 23.8991 20.8488 24.048C20.7403 24.1984 20.5957 24.3183 20.4287 24.3965C20.2673 24.4757 20.0842 24.4974 19.9091 24.4579H18.4714V30.0572ZM26.3203 30.8462C26.1299 30.925 25.9262 30.9659 25.7205 30.9667C25.5451 30.9721 25.3709 30.9361 25.2117 30.8615C25.1465 30.8316 25.0886 30.7877 25.0418 30.7328C24.9951 30.6779 24.9607 30.6134 24.941 30.5438L24.4907 29.3296H21.6456L21.1671 30.5438C21.1474 30.6134 21.113 30.6779 21.0663 30.7328C21.0195 30.7877 20.9616 30.8316 20.8964 30.8615C20.7372 30.9361 20.563 30.9721 20.3876 30.9667C20.1819 30.9659 19.9782 30.925 19.7878 30.8462C19.4082 30.6636 19.336 30.2085 19.5713 29.4809L21.8231 23.5067C21.9111 23.2521 22.0725 23.0299 22.2865 22.869C22.5075 22.6897 22.7827 22.593 23.066 22.595C23.3492 22.593 23.6244 22.6897 23.8454 22.869C24.0594 23.0299 24.2208 23.2521 24.3088 23.5067L26.5563 29.4809C26.7786 30.2231 26.6999 30.6782 26.3203 30.8462ZM31.0535 30.8462H28.059C27.9389 30.8511 27.8191 30.8306 27.7073 30.7861C27.5955 30.7415 27.494 30.674 27.4094 30.5876C27.327 30.507 27.2619 30.4102 27.2179 30.3032C27.174 30.1961 27.1522 30.0811 27.1539 29.9652V23.5374C27.1527 23.4138 27.1773 23.2913 27.2262 23.178C27.2751 23.0646 27.3471 22.9631 27.4375 22.8799C27.5264 22.7917 27.6317 22.722 27.7473 22.675C27.8628 22.628 27.9864 22.6046 28.1109 22.606C28.2355 22.6046 28.359 22.628 28.4746 22.675C28.5902 22.722 28.6954 22.7917 28.7843 22.8799C28.8747 22.9631 28.9467 23.0646 28.9956 23.178C29.0445 23.2913 29.0692 23.4138 29.068 23.5374V29.0864H31.0448C31.1649 29.0815 31.2846 29.102 31.3965 29.1465C31.5083 29.191 31.6097 29.2586 31.6944 29.345C31.7767 29.4256 31.8419 29.5223 31.8858 29.6294C31.9298 29.7364 31.9516 29.8515 31.9499 29.9674C31.9527 30.0837 31.9319 30.1994 31.8887 30.3072C31.8455 30.415 31.7808 30.5127 31.6987 30.5942C31.614 30.6788 31.513 30.7448 31.402 30.7882C31.291 30.8316 31.1723 30.8513 31.0535 30.8462ZM38.3936 30.1186C38.3767 30.309 38.3009 30.4893 38.177 30.6336C38.0557 30.7756 37.8938 30.876 37.7137 30.9207C37.5315 30.9715 37.3385 30.9661 37.1594 30.9054C36.9786 30.8446 36.8212 30.7281 36.709 30.5723L34.5286 27.6312L34.1995 27.9336V30.0266C34.2006 30.149 34.1771 30.2703 34.1306 30.3833C34.0841 30.4963 34.0155 30.5986 33.9289 30.684C33.8445 30.7717 33.7434 30.8411 33.6318 30.8882C33.5201 30.9353 33.4002 30.959 33.2793 30.958C33.1548 30.9594 33.0312 30.9359 32.9156 30.8889C32.8001 30.8419 32.6948 30.7723 32.6059 30.684C32.5155 30.6009 32.4435 30.4993 32.3946 30.386C32.3457 30.2727 32.3211 30.1502 32.3223 30.0266V23.5374C32.3209 23.4114 32.344 23.2863 32.3905 23.1693C32.4369 23.0524 32.5057 22.9458 32.5929 22.8558C32.6787 22.7625 32.7831 22.6886 32.8992 22.6391C33.0153 22.5896 33.1404 22.5656 33.2663 22.5687C33.3922 22.5656 33.5174 22.5896 33.6335 22.6391C33.7496 22.6886 33.8539 22.7625 33.9397 22.8558C34.0269 22.9458 34.0957 23.0524 34.1422 23.1693C34.1886 23.2863 34.2118 23.4114 34.2104 23.5374V25.569L36.8086 22.9391C36.874 22.8692 36.953 22.8136 37.0405 22.7759C37.128 22.7382 37.2223 22.7192 37.3175 22.72C37.4375 22.7151 37.5573 22.7356 37.6691 22.7801C37.7809 22.8246 37.8824 22.8922 37.967 22.9786C38.1294 23.1363 38.2347 23.3447 38.2658 23.5703C38.281 23.6816 38.2691 23.7951 38.2314 23.9008C38.1937 24.0065 38.1312 24.1014 38.0493 24.1773L35.9231 26.3294L38.216 29.4217C38.2939 29.5178 38.3503 29.6299 38.3813 29.7502C38.4123 29.8705 38.4173 29.9962 38.3957 30.1186H38.3936ZM23.053 24.9334L23.9818 27.6334H22.1262L23.053 24.9334Z" fill="#3B260A"/>
</svg>
