<svg width="16" height="16" viewBox="0 0 16 16" fill="none" xmlns="http://www.w3.org/2000/svg">
<path d="M4 3.5C4 2.94772 4.44772 2.5 5 2.5H6C6.55228 2.5 7 2.94772 7 3.5V4.5C7 5.05228 6.55228 5.5 6 5.5H5C4.44772 5.5 4 5.05228 4 4.5V3.5Z" fill="#888888"/>
<path d="M9 7.5C9 6.94772 9.44772 6.5 10 6.5H11C11.5523 6.5 12 6.94772 12 7.5V8.5C12 9.05228 11.5523 9.5 11 9.5H10C9.44772 9.5 9 9.05228 9 8.5V7.5Z" fill="#888888"/>
<path d="M5 11.5C5 10.9477 5.44772 10.5 6 10.5H7C7.55228 10.5 8 10.9477 8 11.5V12.5C8 13.0523 7.55228 13.5 7 13.5H6C5.44772 13.5 5 13.0523 5 12.5V11.5Z" fill="#888888"/>
<path d="M2.5 4H3.25M7.75 4H13.5M2.5 8H8.25M12.75 8H13.5M2.5 12H4.25M8.75 12H13.5" stroke="#888888" stroke-linecap="round" stroke-linejoin="round"/>
</svg>
