<svg width="16" height="16" viewBox="0 0 16 16" fill="none" xmlns="http://www.w3.org/2000/svg">
<path d="M13.25 4.139C11.2066 6.16357 9.41247 8.42996 7.90649 10.889L6.88232 12.5C5.58127 10.9302 4.20205 9.42822 2.75 8L3.70293 7.037L6.25 9.287C7.14058 8.387 7.96883 7.571 8.73473 6.839C9.50064 6.107 10.1122 5.546 10.5693 5.156L11.736 4.157C11.9502 3.96183 12.1795 3.78427 12.4218 3.626L12.6088 3.5C12.6421 3.50166 12.675 3.50771 12.7067 3.518C12.793 3.56131 12.8713 3.61913 12.9383 3.689C13.0698 3.81742 13.1756 3.9702 13.25 4.139Z" fill="#222222"/>
</svg>
