<svg width="16" height="16" viewBox="0 0 16 16" fill="none" xmlns="http://www.w3.org/2000/svg">
<path d="M2.99805 14C2.44576 14 1.99805 13.5523 1.99805 13V9.744C1.99805 9.19172 2.44576 8.744 2.99805 8.744H6.25405C6.80633 8.744 7.25405 9.19172 7.25405 9.744V13C7.25405 13.5523 6.80633 14 6.25405 14H2.99805ZM2.99805 7.244C2.44576 7.244 1.99805 6.79629 1.99805 6.244V3C1.99805 2.44771 2.44576 2 2.99805 2H6.25405C6.80633 2 7.25405 2.44772 7.25405 3V6.244C7.25405 6.79629 6.80633 7.244 6.25405 7.244H2.99805ZM9.75405 14C9.20176 14 8.75405 13.5523 8.75405 13V9.744C8.75405 9.19172 9.20176 8.744 9.75405 8.744H12.998C13.5503 8.744 13.998 9.19172 13.998 9.744V13C13.998 13.5523 13.5503 14 12.998 14H9.75405ZM9.75405 7.244C9.20176 7.244 8.75405 6.79629 8.75405 6.244V3C8.75405 2.44771 9.20176 2 9.75405 2H12.998C13.5503 2 13.998 2.44772 13.998 3V6.244C13.998 6.79629 13.5503 7.244 12.998 7.244H9.75405Z" fill="#888888"/>
</svg>
