<svg width="20" height="20" viewBox="0 0 20 20" fill="none" xmlns="http://www.w3.org/2000/svg">
<g clip-path="url(#clip0_1164_3742)">
<path d="M13.1443 4C11.9967 4 10.7497 4.50151 10.0076 5.51181C9.26557 4.50151 8.01858 4 6.87104 4C4.80546 4 3.03825 5.57723 3 7.81587C3.00765 8.03392 3.0306 8.33919 3.0459 8.49909C3.39781 11.2174 6.31257 13.7832 9.18142 15.7456C9.42623 15.9128 9.71694 16 10 16C10.2907 16 10.5738 15.9128 10.8186 15.7456C13.6951 13.7832 16.6098 11.2247 16.9541 8.49909C16.977 8.33919 16.9923 8.03392 17 7.81587C16.977 5.57723 15.2098 4 13.1443 4Z" stroke="#444444" stroke-width="1.5"/>
</g>
<defs>
<clipPath id="clip0_1164_3742">
<rect width="20" height="20" fill="white"/>
</clipPath>
</defs>
</svg>
