<svg width="20" height="21" viewBox="0 0 20 21" fill="none" xmlns="http://www.w3.org/2000/svg">
<g clip-path="url(#clip0_1164_3706)">
<path fill-rule="evenodd" clip-rule="evenodd" d="M9.9987 19.181C15.0613 19.181 19.1654 15.0769 19.1654 10.0143C19.1654 4.95171 15.0613 0.847656 9.9987 0.847656C4.93609 0.847656 0.832031 4.95171 0.832031 10.0143C0.832031 15.0769 4.93609 19.181 9.9987 19.181ZM6.1728 6.18574C6.44617 5.91237 6.88938 5.91237 7.16275 6.18574L10.0013 9.02426L12.8395 6.18606C13.1128 5.9127 13.556 5.9127 13.8294 6.18606C14.1028 6.45943 14.1028 6.90265 13.8294 7.17601L10.9912 10.0142L13.8294 12.8524C14.1028 13.1258 14.1028 13.569 13.8294 13.8424C13.556 14.1157 13.1128 14.1157 12.8395 13.8424L10.0013 11.0042L7.16275 13.8427C6.88938 14.116 6.44617 14.116 6.1728 13.8427C5.89943 13.5693 5.89943 13.1261 6.1728 12.8527L9.01132 10.0142L6.1728 7.17569C5.89943 6.90232 5.89943 6.45911 6.1728 6.18574Z" fill="#8C949E"/>
</g>
<defs>
<clipPath id="clip0_1164_3706">
<rect width="20" height="20" fill="white" transform="translate(0 0.0141602)"/>
</clipPath>
</defs>
</svg>
