<svg width="20" height="20" viewBox="0 0 20 20" fill="none" xmlns="http://www.w3.org/2000/svg">
<g clip-path="url(#clip0_1164_3738)">
<path d="M13.3689 3.5C12.1393 3.5 10.8033 4.04331 10.0082 5.1378C9.21311 4.04331 7.87705 3.5 6.64754 3.5C4.43443 3.5 2.54098 5.20866 2.5 7.63386C2.5082 7.87008 2.53279 8.20079 2.54918 8.37402C2.92623 11.3189 6.04918 14.0984 9.12295 16.2244C9.38525 16.4055 9.69672 16.5 10 16.5C10.3115 16.5 10.6148 16.4055 10.877 16.2244C13.959 14.0984 17.082 11.3268 17.4508 8.37402C17.4754 8.20079 17.4918 7.87008 17.5 7.63386C17.4754 5.20866 15.582 3.5 13.3689 3.5Z" fill="#FF5858"/>
</g>
<defs>
<clipPath id="clip0_1164_3738">
<rect width="20" height="20" fill="white"/>
</clipPath>
</defs>
</svg>
