<svg width="16" height="16" viewBox="0 0 16 16" fill="none" xmlns="http://www.w3.org/2000/svg">
<path d="M10.4983 9.22312C10.3357 9.75738 10.0053 10.2251 9.55602 10.5569C9.11007 10.896 8.56185 11.0729 8.00179 11.0586C7.4405 11.0562 6.89356 10.881 6.43534 10.5569C5.97449 10.2366 5.64093 9.76447 5.49301 9.22312C5.47665 9.1684 5.47147 9.11096 5.47778 9.0542C5.48409 8.99744 5.50175 8.94253 5.52973 8.89274C5.55617 8.84174 5.59251 8.79654 5.63664 8.75977C5.68077 8.723 5.7318 8.6954 5.78672 8.6786C5.89524 8.64172 6.0139 8.64894 6.11715 8.6987C6.17052 8.72411 6.21715 8.76171 6.2533 8.80848C6.28944 8.85525 6.31407 8.90986 6.32519 8.9679C6.43641 9.32268 6.6597 9.63182 6.96157 9.84893C7.26142 10.074 7.62688 10.1943 8.00179 10.1916C8.37313 10.1955 8.73506 10.0748 9.02978 9.84893C9.3272 9.62666 9.5493 9.31855 9.66616 8.96615C9.68084 8.90807 9.70821 8.85397 9.7463 8.80772C9.78438 8.76148 9.83224 8.72424 9.88644 8.6987C9.93633 8.67066 9.99172 8.6538 10.0488 8.64927C10.1058 8.64474 10.1632 8.65266 10.2169 8.67248C10.3249 8.7149 10.4154 8.7925 10.4739 8.89274C10.5057 8.94118 10.5247 8.99694 10.5289 9.05475C10.5332 9.11257 10.5227 9.17051 10.4983 9.22312ZM7.12241 6.2514C7.12448 6.36746 7.10275 6.48271 7.05855 6.59004C7.01435 6.69738 6.94862 6.79451 6.86541 6.87546C6.78638 6.95781 6.69131 7.02309 6.58607 7.06729C6.48083 7.11148 6.36765 7.13365 6.25351 7.13243C6.13764 7.1331 6.02279 7.11072 5.91564 7.06661C5.80849 7.02249 5.71119 6.95752 5.62938 6.87546C5.54352 6.79663 5.47613 6.69983 5.43201 6.59195C5.38789 6.48408 5.36812 6.36779 5.37413 6.2514C5.37602 6.02161 5.46835 5.80181 5.63113 5.63958C5.79467 5.4749 6.01619 5.38078 6.24827 5.37737C6.36327 5.36922 6.47858 5.38824 6.58487 5.43288C6.69116 5.47752 6.78547 5.54653 6.86017 5.63433C7.01416 5.8049 7.1065 6.02217 7.12241 6.2514ZM10.619 6.2514C10.621 6.36746 10.5993 6.48271 10.5551 6.59004C10.5109 6.69738 10.4452 6.79451 10.362 6.87546C10.281 6.95866 10.1839 7.02438 10.0765 7.06857C9.96917 7.11277 9.85391 7.1345 9.73784 7.13243C9.62348 7.13521 9.50983 7.11374 9.40437 7.06946C9.29891 7.02517 9.20401 6.95905 9.12594 6.87546C8.96482 6.70731 8.87359 6.48425 8.87069 6.2514C8.86417 6.13659 8.88393 6.02181 8.92847 5.91579C8.973 5.80977 9.04114 5.7153 9.12769 5.63958C9.29347 5.48215 9.5111 5.39076 9.73958 5.38261C9.85576 5.3798 9.97124 5.40119 10.0787 5.44543C10.1861 5.48967 10.2832 5.55579 10.3637 5.63958C10.4505 5.71505 10.5186 5.80952 10.5629 5.91564C10.6072 6.02176 10.6264 6.13666 10.619 6.2514ZM12.3672 7.99947C12.371 7.4143 12.2519 6.83485 12.0176 6.2986C11.7953 5.77973 11.4801 5.30581 11.0875 4.90014C10.689 4.49878 10.2132 4.18241 9.68888 3.97017C9.15492 3.74507 8.58128 3.62917 8.00179 3.6293C7.41772 3.63027 6.83961 3.74671 6.30072 3.97192C5.77423 4.18001 5.29763 4.49691 4.90209 4.90189C4.51627 5.31157 4.20294 5.78387 3.97551 6.2986C3.73188 6.83201 3.61062 7.41315 3.6206 7.99947C3.6265 8.58418 3.74708 9.16206 3.97551 9.70034C4.19035 10.2186 4.50656 10.6887 4.90559 11.0831C5.31185 11.4764 5.78408 11.7953 6.30072 12.0253C6.83365 12.2695 7.41581 12.3874 8.00179 12.3696C8.58074 12.3562 9.15265 12.2396 9.69063 12.0253C10.2193 11.8156 10.6964 11.4942 11.0893 11.0831C11.4788 10.6812 11.7932 10.213 12.0176 9.70034C12.2431 9.16133 12.3618 8.5837 12.3672 7.99947ZM13.2414 7.99947C13.249 8.92333 13.0074 9.83216 12.5421 10.6303C12.084 11.4229 11.4256 12.0811 10.633 12.5392C9.83625 13.0094 8.92691 13.2547 8.00179 13.2489C7.07295 13.2536 6.15994 13.0085 5.3584 12.5392C4.56394 12.0876 3.90802 11.4276 3.46151 10.6303C3.01131 9.82541 2.76745 8.92157 2.75171 7.99947C2.72014 7.07131 2.96737 6.15498 3.46151 5.36863C3.93576 4.59272 4.58547 3.93891 5.3584 3.45973C6.15488 2.97844 7.07133 2.73239 8.00179 2.75002C8.92854 2.73129 9.84136 2.97752 10.633 3.45973C11.4041 3.94522 12.0565 4.59754 12.5421 5.36863C13.0514 6.14786 13.2966 7.07022 13.2414 7.99947Z" fill="#3F86F1"/>
</svg>
