<svg width="20" height="20" viewBox="0 0 20 20" fill="none" xmlns="http://www.w3.org/2000/svg">
<path d="M9.43954 4.88562C9.6688 4.42109 10.3312 4.42109 10.5605 4.88562L11.6914 7.17717C11.7824 7.36163 11.9584 7.48949 12.162 7.51907L14.6909 7.88654C15.2035 7.96103 15.4082 8.59101 15.0373 8.9526L13.2073 10.7363C13.06 10.8799 12.9928 11.0868 13.0276 11.2895L13.4596 13.8082C13.5472 14.3188 13.0113 14.7081 12.5527 14.4671L10.2908 13.2779C10.1088 13.1822 9.89124 13.1822 9.70916 13.2779L7.44726 14.4671C6.98875 14.7081 6.45285 14.3188 6.54042 13.8082L6.9724 11.2895C7.00718 11.0868 6.93996 10.8799 6.79266 10.7363L4.96274 8.9526C4.59179 8.59101 4.79649 7.96103 5.30912 7.88654L7.838 7.51907C8.04157 7.48949 8.21755 7.36164 8.30859 7.17717L9.43954 4.88562Z" fill="#FF9E0D"/>
<path d="M9.43954 4.88562C9.6688 4.42109 10.3312 4.42109 10.5605 4.88562L11.6914 7.17717C11.7824 7.36163 11.9584 7.48949 12.162 7.51907L14.6909 7.88654C15.2035 7.96103 15.4082 8.59101 15.0373 8.9526L13.2073 10.7363C13.06 10.8799 12.9928 11.0868 13.0276 11.2895L13.4596 13.8082C13.5472 14.3188 13.0113 14.7081 12.5527 14.4671L10.2908 13.2779C10.1088 13.1822 9.89124 13.1822 9.70916 13.2779L7.44726 14.4671C6.98875 14.7081 6.45285 14.3188 6.54042 13.8082L6.9724 11.2895C7.00718 11.0868 6.93996 10.8799 6.79266 10.7363L4.96274 8.9526C4.59179 8.59101 4.79649 7.96103 5.30912 7.88654L7.838 7.51907C8.04157 7.48949 8.21755 7.36164 8.30859 7.17717L9.43954 4.88562Z" fill="url(#paint0_linear_912_6128)" fill-opacity="0.5"/>
<path d="M5.82031 4.50378L7.24976 6.19537M14.1565 4.42688L12.9077 6.19537M5.59448 11.4471L3.53149 12.1194M16.3806 12.1198L14.4446 11.4474M10 14.6637L9.99978 16.7537" stroke="#FF9E0D" stroke-width="0.3125" stroke-linecap="round"/>
<path d="M5.82031 4.50378L7.24976 6.19537M14.1565 4.42688L12.9077 6.19537M5.59448 11.4471L3.53149 12.1194M16.3806 12.1198L14.4446 11.4474M10 14.6637L9.99978 16.7537" stroke="url(#paint1_linear_912_6128)" stroke-opacity="0.2" stroke-width="0.3125" stroke-linecap="round"/>
<defs>
<linearGradient id="paint0_linear_912_6128" x1="6.38646" y1="3.75" x2="14.2914" y2="16.5803" gradientUnits="userSpaceOnUse">
<stop stop-color="#FFE70F"/>
<stop offset="1" stop-color="#FF5A13" stop-opacity="0"/>
</linearGradient>
<linearGradient id="paint1_linear_912_6128" x1="9.99989" y1="15.7087" x2="9.99989" y2="15.7087" gradientUnits="userSpaceOnUse">
<stop stop-color="#FFD706"/>
<stop offset="1" stop-color="#FF7A00" stop-opacity="0"/>
</linearGradient>
</defs>
</svg>
