<svg width="25" height="24" viewBox="0 0 25 24" fill="none" xmlns="http://www.w3.org/2000/svg">
<path d="M19.9149 3H5.08784L4.0249 8.814C4.02561 9.27337 4.12386 9.72737 4.31316 10.146C4.50618 10.5432 4.76851 10.9028 5.08784 11.208V19.578C5.08436 19.7654 5.11934 19.9515 5.1906 20.1248C5.26187 20.2982 5.36791 20.4552 5.5022 20.586C5.63317 20.7202 5.79025 20.8261 5.96376 20.8973C6.13727 20.9685 6.32354 21.0035 6.51109 21H13.0328V19.938H7.57402C7.38648 19.9415 7.20021 19.9065 7.02669 19.8353C6.85318 19.7641 6.6961 19.6582 6.56514 19.524C6.43085 19.3932 6.3248 19.2362 6.25354 19.0628C6.18227 18.8895 6.1473 18.7034 6.15077 18.516V11.838C6.49358 11.9508 6.85284 12.0055 7.21371 12C7.73925 12.0031 8.25658 11.8697 8.71503 11.613C9.17113 11.3607 9.56266 11.0065 9.85903 10.578C10.1554 11.0065 10.5469 11.3607 11.003 11.613C11.4615 11.8697 11.9788 12.0031 12.5044 12C13.0368 12.0037 13.5609 11.8671 14.0237 11.604C14.4721 11.3484 14.8594 10.9983 15.1587 10.578C15.4551 11.0065 15.8466 11.3607 16.3027 11.613C16.7611 11.8697 17.2785 12.0031 17.804 12C18.365 12.0042 18.9164 11.8548 19.3984 11.568C19.8772 11.2877 20.2746 10.8875 20.5514 10.407C20.833 9.92354 20.9792 9.37333 20.9748 8.814L19.9149 3ZM9.32156 8.814C9.32434 9.18766 9.22465 9.55494 9.03331 9.876C8.84534 10.1958 8.57867 10.4622 8.25862 10.65C7.94111 10.8398 7.57772 10.9394 7.2077 10.938C6.83768 10.9394 6.47429 10.8398 6.15678 10.65C5.83453 10.463 5.56572 10.1965 5.37609 9.876C5.18474 9.55494 5.08505 9.18766 5.08784 8.814L6.15077 4.062H9.32156V8.814ZM14.6182 8.814C14.621 9.18766 14.5213 9.55494 14.33 9.876C14.142 10.1958 13.8753 10.4622 13.5553 10.65C13.2378 10.8398 12.8744 10.9394 12.5044 10.938C12.1343 10.9394 11.7709 10.8398 11.4534 10.65C11.1334 10.4622 10.8667 10.1958 10.6788 9.876C10.4874 9.55494 10.3877 9.18766 10.3905 8.814V4.062H14.6242L14.6182 8.814ZM17.807 10.938C17.433 10.9408 17.0654 10.8412 16.7441 10.65C16.424 10.4622 16.1574 10.1958 15.9694 9.876C15.7781 9.55494 15.6784 9.18766 15.6812 8.814V4.062H18.87L19.9209 8.814C19.9237 9.18766 19.824 9.55494 19.6326 9.876C19.4447 10.1958 19.178 10.4622 18.8579 10.65C18.5408 10.8406 18.1772 10.9403 17.807 10.938ZM18.3835 12.792C18.0133 12.7916 17.6464 12.8618 17.3026 12.999C16.9691 13.1272 16.6677 13.3269 16.4198 13.584C16.1808 13.3247 15.8848 13.1244 15.555 12.999C15.2052 12.8607 14.8322 12.7905 14.4561 12.792C13.8159 12.7803 13.1937 13.0045 12.7085 13.422C12.4511 13.6562 12.2472 13.943 12.1104 14.2629C11.9736 14.5827 11.9073 14.9283 11.9158 15.276C11.9288 15.7778 12.0715 16.2677 12.3302 16.698C12.6451 17.2143 13.0201 17.6916 13.4472 18.12C13.7475 18.44 14.2699 18.956 15.0146 19.668L15.3569 19.992C15.465 20.1 15.6271 20.25 15.8433 20.442L16.4738 21L17.0143 20.478C17.2425 20.25 17.4167 20.088 17.5368 19.992L17.789 19.758C18.5577 19.038 19.0982 18.51 19.4104 18.174C19.8457 17.7366 20.2249 17.2468 20.5394 16.716C20.8099 16.2833 20.9593 15.786 20.9718 15.276C20.9843 14.7926 20.8526 14.3164 20.5935 13.908C20.3662 13.5488 20.0412 13.2616 19.6566 13.08C19.2598 12.8883 18.8243 12.7898 18.3835 12.792ZM16.8522 19.146L16.4738 19.524C16.378 19.4527 16.293 19.3678 16.2216 19.272L16.1135 19.146C15.4049 18.498 14.8945 18.012 14.5822 17.688C14.166 17.2891 13.7918 16.8489 13.4652 16.374C13.2121 16.0401 13.0619 15.6398 13.0328 15.222C13.0316 15.024 13.0715 14.8278 13.1499 14.646C13.2186 14.4787 13.3268 14.3305 13.4652 14.214C13.607 14.0863 13.7732 13.9886 13.9538 13.9267C14.1344 13.8648 14.3257 13.8401 14.5161 13.854C14.97 13.8439 15.4098 14.0119 15.7412 14.322L16.4799 15.072L17.2185 14.322C17.5484 14.0134 17.9857 13.8455 18.4376 13.854C18.6597 13.8551 18.8797 13.8979 19.0861 13.98C19.3285 14.0605 19.5416 14.2108 19.6987 14.412C19.884 14.6434 19.977 14.9351 19.9599 15.231C19.9207 15.6484 19.7611 16.0454 19.5005 16.374C19.1604 16.8383 18.7871 17.2775 18.3835 17.688C18.0713 17.996 17.5608 18.482 16.8522 19.146Z" fill="#666666"/>
</svg>
