<svg width="20" height="20" viewBox="0 0 20 20" fill="none" xmlns="http://www.w3.org/2000/svg">
<path fill-rule="evenodd" clip-rule="evenodd" d="M6.49951 2.02319C5.53301 2.02319 4.74951 2.80669 4.74951 3.77319V4.83684H2.76123C2.34702 4.83684 2.01123 5.17263 2.01123 5.58684C2.01123 6.00106 2.34702 6.33684 2.76123 6.33684H3.3645L3.87315 16.3269C3.92053 17.2576 4.68897 17.9879 5.62088 17.9879H14.379C15.3109 17.9879 16.0793 17.2576 16.1267 16.3269L16.6354 6.33684H17.2384C17.6526 6.33684 17.9884 6.00106 17.9884 5.58684C17.9884 5.17263 17.6526 4.83684 17.2384 4.83684H15.2495V3.77319C15.2495 2.8067 14.466 2.02319 13.4995 2.02319H6.49951ZM13.7495 4.83684V3.77319C13.7495 3.63512 13.6376 3.52319 13.4995 3.52319H6.49951C6.36144 3.52319 6.24951 3.63512 6.24951 3.77319V4.83684H13.7495ZM4.8675 6.35757L5.37121 16.2507C5.37798 16.3836 5.48775 16.4879 5.62088 16.4879H14.379C14.5121 16.4879 14.6219 16.3836 14.6287 16.2507L15.1324 6.35757H4.8675ZM8.45338 14.6506C8.03937 14.6636 7.69317 14.3386 7.68013 13.9246L7.51211 8.59248C7.49907 8.17847 7.82411 7.83228 8.23812 7.81923C8.65213 7.80619 8.99832 8.13123 9.01137 8.54524L9.17938 13.8774C9.19243 14.2914 8.86738 14.6376 8.45338 14.6506ZM12.489 8.61732C12.5098 8.20363 12.1913 7.85139 11.7776 7.83057C11.3639 7.80974 11.0117 8.12822 10.9909 8.54191L10.7231 13.86C10.7023 14.2737 11.0208 14.6259 11.4345 14.6468C11.8482 14.6676 12.2004 14.3491 12.2213 13.9354L12.489 8.61732Z" fill="#444444"/>
</svg>
