<svg width="101" height="16" viewBox="0 0 101 16" fill="none" xmlns="http://www.w3.org/2000/svg">
<path d="M35.2836 0.269077C35.9113 0.568425 36.3636 1.10322 36.5559 1.77927H36.5627C36.809 2.64368 36.6234 3.65608 36.043 4.5474C35.4254 5.49254 34.4433 6.15514 33.9101 6.46794L33.4106 6.76393L33.9202 5.08556C33.3195 5.26718 32.8234 5.27727 32.4252 5.20328C31.4431 5.01829 31.0347 4.31532 31.0347 4.31532C30.8998 4.12361 30.8086 3.91171 30.7546 3.69308C30.677 3.45428 30.65 3.19193 30.6669 2.92621C30.6905 2.53605 30.812 2.1358 31.0212 1.75573C31.0272 1.745 31.0332 1.73416 31.0392 1.72326C31.0672 1.67264 31.0959 1.62055 31.1292 1.57074C31.379 1.1873 31.7097 0.847593 32.0944 0.588606C32.7998 0.0807231 33.7076 0.0168173 33.7177 0.0168173C33.8527 0 33.9776 0 34.0991 0C34.5277 0.00672693 34.9259 0.0975404 35.2836 0.269077Z" fill="black"/>
<path d="M44.2572 10.6891C44.2842 10.5915 44.3281 10.4166 44.3686 10.1476V10.1509L48.9684 11.1936C48.8773 11.5636 48.7592 11.9336 48.604 12.2666H48.5972C48.2496 13.1175 47.686 13.8777 46.9031 14.547C45.8636 15.4383 44.4192 15.8823 42.5631 15.8823C40.7069 15.8823 39.1646 15.2399 37.9328 13.9516C36.701 12.6634 36.0834 10.8674 36.0834 8.56002C36.0834 8.20349 36.1037 7.86042 36.1341 7.5308C36.4074 7.34917 36.701 7.13391 36.9744 6.88501C37.403 6.4814 37.7607 6.05423 38.0442 5.62035C38.6787 4.64831 39.0094 3.55855 39.0128 2.49233C40.0826 1.76582 41.2469 1.3992 42.5023 1.3992C44.1357 1.3992 45.5261 1.79609 46.6736 2.58314C47.3789 3.06748 47.9256 3.66954 48.3171 4.38596H48.3205C48.3205 4.38596 48.6917 4.96447 48.9752 6.08451L44.3821 7.12718C44.3416 6.90519 44.2842 6.67984 44.2066 6.46121C43.9164 5.66071 43.427 5.25709 42.7318 5.25709C41.5911 5.27055 41.0208 6.39731 41.0208 8.63738C41.0208 10.8774 41.5911 12.0076 42.7318 12.0177C43.481 12.0177 43.9906 11.5737 44.2572 10.6891Z" fill="black"/>
<path d="M94.174 8.62703L94.2261 8.56284L91.4606 1.91052L91.4605 1.91049H95.1099L95.1101 1.91052L95.9156 3.85243L97.3465 2.075C97.563 1.80818 97.8876 1.6517 98.2303 1.6517H101L97.8455 5.56366L96.619 3.92265L96.5629 3.99487L99.2606 10.5108L95.5348 10.5108L94.7372 8.58089L93.5267 10.0855C93.3102 10.3543 92.9856 10.5088 92.6409 10.5088H89.8431L92.8473 6.77738L94.174 8.62703Z" fill="black"/>
<path d="M7.30646 3.54845C6.73274 4.36577 6.12865 5.17973 5.49756 5.98696V5.99033C4.86647 6.79756 4.22526 7.57452 3.5773 8.31784L7.95104 13.7902H6.08815L1.7009 8.28757C2.35899 7.54425 3.02045 6.77401 3.68866 5.97351C4.3535 5.17301 4.97109 4.36577 5.53806 3.54845H7.30646Z" fill="black"/>
<path d="M1.53554 3.54845H0V13.7868H1.53554V3.54845Z" fill="black"/>
<path fill-rule="evenodd" clip-rule="evenodd" d="M14.8896 8.49948C15.1191 8.65084 15.3149 8.83247 15.4802 9.05109H15.4769C15.6422 9.26972 15.7738 9.52198 15.8683 9.80787C15.9662 10.0938 16.0134 10.3998 16.0134 10.7261C16.0134 11.1869 15.9392 11.6107 15.7873 11.9908C15.6388 12.3742 15.3959 12.7038 15.0685 12.9796C14.7378 13.2554 14.3193 13.4707 13.8131 13.6254C13.3069 13.7801 12.696 13.8575 11.9839 13.8575C11.8186 13.8575 11.6195 13.8508 11.3866 13.8373C11.2191 13.8276 11.0428 13.8162 10.8591 13.8043L10.8574 13.8042L10.8571 13.8042C10.7861 13.7996 10.7139 13.7949 10.6408 13.7902C10.3741 13.7734 10.1042 13.7465 9.8308 13.7162C9.55745 13.6859 9.29759 13.6456 9.05122 13.6019V3.99917C9.54395 3.79736 10.0502 3.63592 10.5665 3.50811C11.0829 3.38029 11.5756 3.31639 12.0413 3.31639C12.5441 3.31639 13.0065 3.37693 13.4317 3.49465C13.8569 3.61237 14.2248 3.78727 14.5353 4.01935C14.8458 4.25143 15.0888 4.53396 15.2609 4.86358C15.433 5.1932 15.5207 5.57663 15.5207 6.01388C15.5207 6.26951 15.4836 6.51168 15.4094 6.73703C15.3385 6.96238 15.2406 7.17092 15.1158 7.35591C14.9909 7.54426 14.8491 7.70571 14.6838 7.84025C14.5218 7.97478 14.3429 8.08578 14.1506 8.1665C14.4138 8.23713 14.6602 8.34813 14.8896 8.49948ZM10.5901 4.74813V7.72589H11.9063C12.1797 7.72589 12.4395 7.68889 12.6859 7.61153C12.9323 7.53417 13.1482 7.42654 13.3305 7.28527C13.5127 7.14401 13.6578 6.97247 13.7692 6.7673C13.8806 6.56549 13.9346 6.33005 13.9346 6.0677C13.9346 5.82217 13.8806 5.60354 13.776 5.40846C13.6713 5.21338 13.5296 5.04521 13.3575 4.91067C13.182 4.77613 12.9829 4.67186 12.7601 4.59787C12.5374 4.52723 12.3045 4.49024 12.0683 4.49024C11.7747 4.49024 11.498 4.51714 11.2313 4.57769C10.9665 4.63782 10.755 4.69463 10.5901 4.74813ZM13.7861 12.2363C13.9818 12.0816 14.1371 11.8764 14.2518 11.6208L14.2484 11.6275C14.3632 11.3719 14.4205 11.0624 14.4205 10.6992C14.4205 10.3797 14.353 10.1072 14.2214 9.8785C14.0898 9.64979 13.9177 9.46143 13.7085 9.31008C13.4992 9.16209 13.2596 9.05109 12.9896 8.98382C12.7196 8.91319 12.4429 8.87956 12.1594 8.87956H10.5834V12.5827C10.8399 12.6164 11.1031 12.6466 11.3731 12.6635C11.6431 12.6803 11.9164 12.6904 12.1898 12.6904C12.5104 12.6904 12.8074 12.6534 13.0807 12.5794C13.3541 12.5054 13.5903 12.391 13.7861 12.2363Z" fill="black"/>
<path fill-rule="evenodd" clip-rule="evenodd" d="M52.9473 1.786L48.9448 15.4854H53.3962L53.7708 13.8306H57.4021L57.8442 15.4854H62.3259L58.3234 1.786H52.9473ZM54.709 10.3595L55.6202 6.08114L56.5415 10.3595H54.709Z" fill="black"/>
<path fill-rule="evenodd" clip-rule="evenodd" d="M74.5563 2.94976C75.4033 3.72672 75.8286 4.81984 75.8286 6.2325V6.23586C75.8286 8.25057 75.0321 9.60941 73.4392 10.309L76.0682 15.4854H70.844L68.6402 10.7362H68.2487V15.4854H63.551V1.786H71.0971C72.555 1.786 73.7092 2.1728 74.5563 2.94976ZM68.2487 7.08682H70.0475C70.5909 7.08682 70.8608 6.75047 70.8608 6.08114C70.8608 5.41181 70.5909 5.07547 70.0475 5.07547H68.2487V7.08682Z" fill="black"/>
<path d="M81.9841 12.0143V10.3628H87.9036V6.90855H81.9841V5.25373H88.4132V1.786H77.2864V15.4854H88.6663V12.0143H81.9841Z" fill="black"/>
<path fill-rule="evenodd" clip-rule="evenodd" d="M30.8187 9.4177L31.2878 6.90856C30.0189 6.32668 29.4452 5.35464 29.3405 5.16292C28.6723 4.03953 28.6892 2.8724 28.8613 2.00463C28.5002 1.89027 28.1189 1.80619 27.7206 1.74901C27.7062 1.74901 27.6943 1.74655 27.6806 1.74374C27.6782 1.74326 27.6758 1.74277 27.6734 1.74228C27.6346 1.73724 27.5949 1.73219 27.5553 1.72714C27.5156 1.7221 27.476 1.71705 27.4372 1.71201C27.4203 1.71033 27.4043 1.70865 27.3883 1.70697L27.3882 1.70696L27.3881 1.70695C27.3721 1.70527 27.3561 1.7036 27.3393 1.70192C27.2718 1.69519 27.2009 1.68846 27.13 1.6851L26.9782 1.67501C26.9399 1.67501 26.9017 1.67202 26.8634 1.66903C26.8443 1.66754 26.8252 1.66604 26.8061 1.66492C26.7571 1.66324 26.7082 1.6624 26.6593 1.66156C26.6103 1.66072 26.5614 1.65988 26.5125 1.65819H26.4315C26.3336 1.65819 26.2357 1.65819 26.1378 1.66492C26.0996 1.66492 26.0614 1.66791 26.0231 1.6709C26.004 1.67239 25.9849 1.67389 25.9657 1.67501C25.932 1.67501 25.8982 1.678 25.8645 1.68099C25.8476 1.68249 25.8307 1.68398 25.8139 1.6851C25.7487 1.68819 25.6864 1.69413 25.6216 1.7003L25.6046 1.70192C25.581 1.70192 25.5574 1.70521 25.535 1.70834C25.5253 1.70968 25.5159 1.711 25.5068 1.71201C25.4819 1.71511 25.4574 1.71789 25.433 1.72064C25.3781 1.72686 25.3243 1.73296 25.2705 1.74228C25.2561 1.74228 25.2442 1.74473 25.2305 1.74755C25.2281 1.74803 25.2257 1.74852 25.2233 1.74901C23.7957 1.95081 22.6179 2.51251 21.6865 3.44083C20.4986 4.62813 19.9046 6.38386 19.9046 8.71474C19.9046 11.0456 20.4716 12.8417 21.6089 14.1064C22.7462 15.371 24.3425 16 26.4011 16C28.4597 16 30.0796 15.3811 31.2608 14.14C32.1551 13.2016 32.712 11.9437 32.928 10.3628C32.9482 10.2216 32.9651 10.087 32.9786 9.95586C32.9786 9.95586 33.0393 9.45806 33.0393 8.89973C31.8818 9.26635 31.0921 9.3807 31.0448 9.38743L30.8221 9.4177H30.8187ZM26.4315 12.2094C25.3245 12.1993 24.7711 11.0692 24.7711 8.8291C24.7711 6.58903 25.338 5.46563 26.4753 5.46563C27.6126 5.46563 28.1796 6.5823 28.1796 8.80892C28.1796 11.0355 27.5958 12.1724 26.4315 12.206V12.2094Z" fill="black"/>
</svg>
