<svg width="40" height="40" viewBox="0 0 40 40" fill="none" xmlns="http://www.w3.org/2000/svg">
<g id="icon-check-coupon">
<rect id="coupon" x="3" y="10" width="32" height="18" rx="3" fill="#8BD5FF"/>
<circle id="Ellipse" cx="3.50005" cy="19.0557" r="2.22222" fill="white"/>
<path id="dash" d="M10.5469 12V14.5418H9.54687V12H10.5469ZM10.5469 15.816V18.3617H9.54688L9.54687 15.816H10.5469ZM10.5469 19.6345V22.1815H9.54688V19.6345H10.5469ZM10.5469 23.4543V26H9.54688V23.4543H10.5469Z" fill="white"/>
<path id="circle" d="M31.9238 17.7007C33.4072 17.7007 34.8572 18.1406 36.0906 18.9647C37.324 19.7888 38.2853 20.9601 38.8529 22.3306C39.4206 23.701 39.5691 25.209 39.2797 26.6639C38.9903 28.1187 38.276 29.4551 37.2271 30.504C36.1782 31.5529 34.8419 32.2672 33.387 32.5566C31.9321 32.846 30.4241 32.6974 29.0537 32.1298C27.6833 31.5621 26.5119 30.6008 25.6878 29.3675C24.8637 28.1341 24.4238 26.684 24.4238 25.2007C24.4238 23.2116 25.214 21.3039 26.6205 19.8974C28.027 18.4909 29.9347 17.7007 31.9238 17.7007Z" fill="#3F86F1"/>
<path id="check" d="M29 24.913L31.0571 27L35 23" stroke="white" stroke-width="1.5" stroke-miterlimit="10" stroke-linecap="round"/>
</g>
</svg>
