<svg width="40" height="40" viewBox="0 0 40 40" fill="none" xmlns="http://www.w3.org/2000/svg">
<rect y="10" width="40" height="14" rx="7" fill="url(#paint0_linear_648_706)"/>
<path d="M17 16.3913L19.4 19L24 14" stroke="white" stroke-width="1.5" stroke-miterlimit="10" stroke-linecap="round"/>
<g clip-path="url(#clip0_648_706)">
<path d="M25.6982 17.3304C26.5003 17.3304 27.151 17.9751 27.151 18.7711L27.151 25.8766C27.151 25.4789 27.3136 25.1183 27.5766 24.8575C27.6226 24.8119 27.6713 24.7694 27.7231 24.7307C27.9675 24.5452 28.2728 24.4354 28.6044 24.4354C29.4065 24.4354 30.0572 25.0807 30.0572 25.8766L30.0572 26.8708C30.0572 26.4726 30.2197 26.1126 30.4828 25.8517C30.7459 25.5908 31.1095 25.4296 31.5106 25.4296C32.3132 25.4296 32.9634 26.0749 32.9634 26.8708L32.9639 27.548C32.9639 26.8618 33.5099 26.2828 34.2018 26.2722C34.5574 26.2664 34.8793 26.4074 35.1119 26.6375C35.3392 26.8629 35.4804 27.1752 35.4804 27.5199V33.8247C35.4804 34.1561 35.4568 34.4865 35.4092 34.8137C35.3622 35.1409 35.2911 35.4649 35.1975 35.7825C35.0644 36.2343 34.9638 36.694 34.897 37.159C34.8302 37.6235 34.7965 38.0929 34.7965 38.5637L25.1041 38.5638L25.1041 37.0854C25.1041 36.8463 25.0346 36.6188 24.9105 36.4252C24.7865 36.2311 24.6079 36.0715 24.3897 35.9697C24.1796 35.8716 23.9058 35.7036 23.6508 35.5355C23.1754 35.2226 22.7963 34.7851 22.554 34.2729L20.9269 30.8294C20.6477 30.2403 20.7424 29.544 21.1686 29.0493L21.7241 28.404C22.0466 28.0296 22.1926 27.5364 22.1257 27.0497C22.1177 26.9913 22.1134 26.9335 22.1134 26.8768C22.1134 26.1932 22.6738 25.6195 23.3839 25.6195C23.4818 25.6195 23.578 25.6264 23.6721 25.6391C23.8732 25.6662 24.0651 25.7213 24.2443 25.8003L24.2443 18.7712C24.2443 18.373 24.4068 18.0129 24.6704 17.752C24.9335 17.4916 25.2971 17.3304 25.6982 17.3304Z" fill="#FBD7BA"/>
<path d="M23.6715 25.6416C23.8726 25.6686 24.0645 25.7238 24.2437 25.8028L24.2437 31.2009C24.0854 31.2009 23.9426 31.1373 23.8389 31.0344C23.7357 30.9316 23.6715 30.79 23.6716 30.633L23.6715 25.6416Z" fill="#FFB69C"/>
</g>
<defs>
<linearGradient id="paint0_linear_648_706" x1="10" y1="10" x2="31" y2="23" gradientUnits="userSpaceOnUse">
<stop stop-color="#FFD633"/>
<stop offset="1" stop-color="#FAC906"/>
</linearGradient>
<clipPath id="clip0_648_706">
<rect width="22" height="21.8166" fill="white" transform="translate(16.8235 16.9585)"/>
</clipPath>
</defs>
</svg>
