<svg width="59" height="48" viewBox="0 0 59 48" fill="none" xmlns="http://www.w3.org/2000/svg">
<g clip-path="url(#clip0_1327_454)">
<path d="M0.5 10.5514L22.1202 0.199822C22.6767 -0.0666068 23.3233 -0.0666073 23.8798 0.199821L45.5 10.5514L23 22.3503L0.5 10.5514Z" fill="#E2E2E2"/>
<path d="M0.5 10.5515L23 22.3774V48L1.59407 36.7492C0.921322 36.3956 0.5 35.6981 0.5 34.9379V10.5515Z" fill="#D3D3D3"/>
<path d="M45.5 10.5515L23 22.3774V48L44.4059 36.7492C45.0787 36.3956 45.5 35.6981 45.5 34.9379V10.5515Z" fill="#CDCDCD"/>
<path d="M7.91406 14.4778L30.1584 3.1131L36.9993 6.45232L14.9993 17.989L7.91406 14.4778Z" fill="#CCCCCC"/>
<path d="M14.9993 17.989L7.91406 14.4778L7.91408 26.5165L14.9993 30.5288L14.9993 17.989Z" fill="#B8B8B9"/>
<circle cx="44.5" cy="34" r="14" fill="url(#paint0_linear_1327_454)"/>
<path d="M45.1732 38.5752C46.0151 38.5752 46.7166 39.2631 46.7166 40.1097C46.7166 40.9564 46.0326 41.6619 45.1732 41.6619C44.3314 41.6619 43.6299 40.974 43.6299 40.1097C43.6299 39.2807 44.3139 38.5752 45.1732 38.5752Z" fill="white"/>
<path d="M45.256 35.8676C45.6029 34.4359 46.4882 33.6777 46.4882 33.6777L47.6547 32.5213C48.1788 31.935 48.5 31.1695 48.5 30.3389C48.5 28.4984 46.9447 27 45.0344 27C43.3651 27 41.9669 28.1442 41.6406 29.6609" stroke="white" stroke-width="2.57227" stroke-miterlimit="10" stroke-linecap="round"/>
</g>
<defs>
<linearGradient id="paint0_linear_1327_454" x1="35.9444" y1="21.3611" x2="54.6111" y2="45.2778" gradientUnits="userSpaceOnUse">
<stop stop-color="#CECECE"/>
<stop offset="0.747259" stop-color="#9E9E9E"/>
<stop offset="1" stop-color="#AFAFAF"/>
</linearGradient>
<clipPath id="clip0_1327_454">
<rect width="58" height="48" fill="white" transform="translate(0.5)"/>
</clipPath>
</defs>
</svg>
